<?xml version="1.0" encoding="UTF-8" standalone="no"?>
<!-- Created with Inkscape (http://www.inkscape.org/) -->

<svg
   xmlns:dc="http://purl.org/dc/elements/1.1/"
   xmlns:cc="http://creativecommons.org/ns#"
   xmlns:rdf="http://www.w3.org/1999/02/22-rdf-syntax-ns#"
   xmlns:svg="http://www.w3.org/2000/svg"
   xmlns="http://www.w3.org/2000/svg"
   xmlns:sodipodi="http://sodipodi.sourceforge.net/DTD/sodipodi-0.dtd"
   xmlns:inkscape="http://www.inkscape.org/namespaces/inkscape"
   width="192.25162"
   height="69.140121"
   viewBox="0 0 192.25161 69.140117"
   id="svg15022"
   version="1.1"
   inkscape:version="0.91 r13725"
   sodipodi:docname="Kimia Farma logo.svg">
  <defs
     id="defs15024">
    <clipPath
       id="clipPath15058-7"
       clipPathUnits="userSpaceOnUse">
      <path
         inkscape:connector-curvature="0"
         id="path15060-0"
         d="m 0,0 595.276,0 0,841.89 L 0,841.89 0,0 Z" />
    </clipPath>
  </defs>
  <sodipodi:namedview
     id="base"
     pagecolor="#ffffff"
     bordercolor="#666666"
     borderopacity="1.0"
     inkscape:pageopacity="0.0"
     inkscape:pageshadow="2"
     inkscape:zoom="4.6901562"
     inkscape:cx="95.125812"
     inkscape:cy="33.57005"
     inkscape:document-units="px"
     inkscape:current-layer="layer1"
     showgrid="false"
     fit-margin-top="0"
     fit-margin-left="0"
     fit-margin-right="0"
     fit-margin-bottom="0"
     units="px"
     inkscape:window-width="1366"
     inkscape:window-height="706"
     inkscape:window-x="-8"
     inkscape:window-y="-8"
     inkscape:window-maximized="1" />
  <metadata
     id="metadata15027">
    <rdf:RDF>
      <cc:Work
         rdf:about="">
        <dc:format>image/svg+xml</dc:format>
        <dc:type
           rdf:resource="http://purl.org/dc/dcmitype/StillImage" />
        <dc:title></dc:title>
      </cc:Work>
    </rdf:RDF>
  </metadata>
  <g
     inkscape:label="Layer 1"
     inkscape:groupmode="layer"
     id="layer1"
     transform="translate(469.91153,-274.43501)">
    <g
       id="g15054"
       transform="matrix(1.25,0,0,-1.25,-521.77353,404.06425)">
      <g
         id="g15056"
         clip-path="url(#clipPath15058-7)">
        <g
           id="g15062"
           transform="translate(129.1693,62.6815)">
          <path
             d="m 0,0 -3.356,0 0.093,0.559 c 0.163,0.933 0.396,2.424 1.911,2.424 0.63,0 1.282,-0.163 1.911,-0.349 C 0.722,2.587 0.862,2.54 1.025,2.494 L 1.748,2.261 2.237,5.104 2.121,5.127 C 1.655,5.267 1.142,5.43 0.559,5.593 -0.21,5.78 -1.119,5.943 -2.191,5.896 -3.752,5.85 -6.572,5.5 -7.434,2.47 L -8.017,0 l -1.725,0 -0.489,-2.983 1.724,0 -1.724,-10.511 4.638,0 1.724,10.511 3.38,0 L 0,0 Z"
             style="fill:#003a78;fill-opacity:1;fill-rule:nonzero;stroke:none"
             id="path15064"
             inkscape:connector-curvature="0" />
        </g>
        <g
           id="g15066"
           transform="translate(155.8542,62.705)">
          <path
             d="m 0,0 -0.117,0 -1.444,0 c -1.096,0.023 -1.795,-0.233 -2.494,-0.909 l -0.56,-0.792 0.303,1.724 -4.707,0 -2.191,-13.494 4.638,0 1.119,6.899 c 0.372,2.354 2.33,3.402 3.822,3.519 0.536,0.047 1.118,0.023 1.118,0.023 L -0.117,-0.722 0,0 Z"
             style="fill:#003a78;fill-opacity:1;fill-rule:nonzero;stroke:none"
             id="path15068"
             inkscape:connector-curvature="0" />
        </g>
        <g
           id="g15070"
           transform="translate(142.267,62.2853)">
          <path
             d="m 0,0 c -1.119,0.536 -2.657,0.676 -3.892,0.676 -2.191,0 -4.381,-0.326 -6.526,-0.769 l -0.605,-0.117 -0.56,-3.216 c 0,0 3.729,1.468 6.153,1.445 0.536,0 1.165,0.07 1.608,-0.14 0.443,-0.186 0.652,-0.466 0.559,-1.095 -0.093,-0.49 -0.419,-0.862 -1.398,-1.165 -0.979,-0.303 -2.237,-0.513 -3.543,-0.793 -1.514,-0.326 -3.146,-0.792 -4.334,-1.678 -0.816,-0.606 -1.399,-1.421 -1.585,-2.54 -0.303,-1.818 0.233,-3.006 1.585,-3.612 0.722,-0.327 1.654,-0.49 2.796,-0.49 1.748,0 3.123,0.629 3.729,0.862 l 0.723,2.284 c 0,0 -1.515,-0.629 -2.657,-0.629 -1.305,0 -1.911,0.466 -1.748,1.468 0.163,0.979 1.212,1.492 2.703,1.911 0.723,0.21 1.492,0.397 2.191,0.56 0.653,0.163 0.979,0.419 0.979,0.419 l -1.119,-6.502 4.615,0 1.748,10.115 C 1.678,-1.375 1.095,-0.513 0,0"
             style="fill:#003a78;fill-opacity:1;fill-rule:nonzero;stroke:none"
             id="path15072"
             inkscape:connector-curvature="0" />
        </g>
        <g
           id="g15074"
           transform="translate(175.0349,63.0778)">
          <path
             d="m 0,0 c -1.771,-0.023 -3.146,-0.49 -4.452,-1.725 l -0.303,-0.303 -0.116,0.373 C -5.407,-0.443 -6.549,0 -8.273,0 c -1.818,0 -3.916,-1.049 -4.545,-2.074 l 0.279,1.748 -4.661,0 -2.097,-12.725 -0.117,-0.769 0.117,0 4.521,0 1.189,7.201 c 0.093,0.583 0.769,3.077 3.216,3.077 0.862,0 1.119,-0.816 0.909,-2.075 l -1.375,-8.203 4.638,0 1.235,7.388 c 0.093,0.582 0.676,2.89 3.123,2.89 0.489,0 1.282,-0.7 1.095,-1.958 l -1.282,-8.32 4.358,0.023 1.725,10.208 C 4.475,-1.095 2.82,0.023 0,0"
             style="fill:#003a78;fill-opacity:1;fill-rule:nonzero;stroke:none"
             id="path15076"
             inkscape:connector-curvature="0" />
        </g>
        <g
           id="g15078"
           transform="translate(193.4229,62.3786)">
          <path
             d="m 0,0 c -1.119,0.536 -2.657,0.676 -3.892,0.676 -2.191,0 -4.381,-0.326 -6.525,-0.769 l -0.234,-0.047 -0.862,-2.913 0.396,0.117 c 1.865,0.629 3.822,1.095 5.733,1.095 0.537,0 1.142,-0.047 1.608,-0.257 0.443,-0.186 0.746,-0.559 0.653,-1.211 -0.093,-0.467 -0.559,-0.77 -1.538,-1.072 -0.979,-0.303 -2.237,-0.513 -3.542,-0.793 -2.564,-0.559 -5.477,-1.491 -5.92,-4.218 -0.466,-2.797 1.049,-4.102 4.381,-4.102 1.748,0 3.123,0.606 3.729,0.839 l 0.839,2.517 c 0,0 -1.631,-0.839 -2.773,-0.839 -1.305,0 -1.911,0.466 -1.748,1.468 0.163,0.979 1.212,1.469 2.703,1.911 0.723,0.187 1.492,0.373 2.191,0.56 0.256,0.07 0.536,0.163 0.793,0.256 l 0.232,0.163 -1.165,-6.525 4.615,0 1.748,10.138 c 0.046,0.256 0.046,0.489 0.046,0.699 l 0,0.046 C 1.468,-1.119 0.932,-0.443 0,0"
             style="fill:#003a78;fill-opacity:1;fill-rule:nonzero;stroke:none"
             id="path15080"
             inkscape:connector-curvature="0" />
        </g>
        <g
           id="g15082"
           transform="translate(51.5616,56.3891)">
          <path
             d="m 0,0 5.523,6.339 -4.894,0 -4.311,-5.244 1.281,7.691 c 0,0 0.187,0.583 -0.349,1.352 -0.536,0.769 -1.538,0.676 -1.538,0.676 l -2.354,0.023 -3.03,-17.992 4.591,0 0.956,5.547 c 0,0 0.676,-1.725 2.773,-3.566 2.61,-2.26 4.661,-2.26 4.661,-2.26 l 0.676,3.938 c 0,0 -0.839,0.35 -1.724,0.979 C 0.652,-1.445 0,0 0,0"
             style="fill:#003a78;fill-opacity:1;fill-rule:nonzero;stroke:none"
             id="path15084"
             inkscape:connector-curvature="0" />
        </g>
        <g
           id="g15086"
           transform="translate(62.0723,62.6349)">
          <path
             d="m 0,0 c -0.186,0.047 -0.35,0.07 -0.443,0.093 l -0.186,0 -2.168,0 -2.19,-13.4 -0.024,-0.094 0.024,0 4.591,0 1.841,11.047 c 0,0 0.047,0.07 0.047,0.117 0.023,0.07 0.023,0.186 0.023,0.326 0,0.256 -0.093,0.653 -0.42,1.142 C 0.769,-0.326 0.35,-0.117 0,0"
             style="fill:#003a78;fill-opacity:1;fill-rule:nonzero;stroke:none"
             id="path15088"
             inkscape:connector-curvature="0" />
        </g>
        <g
           id="g15090"
           transform="translate(83.8632,63.0544)">
          <path
             d="m 0,0 c -1.748,-0.023 -3.123,-0.466 -4.428,-1.725 l -0.303,-0.279 -0.14,0.349 C -5.407,-0.443 -6.549,0 -8.274,0 c -1.817,0 -3.892,-1.049 -4.544,-2.051 l 0.303,1.725 -4.685,0 -2.214,-13.494 4.661,0 1.166,7.201 c 0.093,0.583 0.792,3.077 3.216,3.077 0.862,0 1.142,-0.816 0.932,-2.075 l -1.375,-8.203 4.638,0 1.212,7.388 c 0.093,0.582 0.676,2.89 3.146,2.89 0.466,0 1.282,-0.7 1.072,-1.958 l -1.282,-8.32 4.545,0 1.678,10.208 C 4.614,-1.119 2.82,0.023 0,0"
             style="fill:#003a78;fill-opacity:1;fill-rule:nonzero;stroke:none"
             id="path15092"
             inkscape:connector-curvature="0" />
        </g>
        <g
           id="g15094"
           transform="translate(94.0943,62.6349)">
          <path
             d="m 0,0 c -0.187,0.047 -0.326,0.07 -0.443,0.093 l -0.163,0 -2.167,0 -2.214,-13.494 4.637,0 1.865,11.047 c 0,0 0.023,0.303 0.023,0.443 C 1.515,-1.655 1.445,-1.258 1.095,-0.769 0.769,-0.326 0.35,-0.117 0,0"
             style="fill:#003a78;fill-opacity:1;fill-rule:nonzero;stroke:none"
             id="path15096"
             inkscape:connector-curvature="0" />
        </g>
        <g
           id="g15098"
           transform="translate(110.5714,62.3786)">
          <path
             d="m 0,0 c -1.142,0.536 -2.657,0.676 -3.915,0.676 -2.191,0 -4.382,-0.326 -6.503,-0.769 l -0.629,-0.117 -0.559,-3.216 c 0,0 3.729,1.468 6.176,1.445 0.513,-0.023 1.142,0.07 1.608,-0.14 0.443,-0.186 0.652,-0.466 0.536,-1.118 -0.07,-0.467 -0.396,-0.84 -1.398,-1.142 -0.956,-0.303 -2.238,-0.513 -3.52,-0.793 -2.586,-0.559 -5.476,-1.491 -5.943,-4.218 -0.442,-2.797 1.049,-4.102 4.382,-4.102 1.771,0 3.146,0.606 3.729,0.839 l 0.722,2.307 c 0,0 -1.514,-0.629 -2.633,-0.629 -1.305,0 -1.935,0.466 -1.771,1.468 0.163,0.979 1.235,1.469 2.703,1.911 0.746,0.187 1.492,0.397 2.191,0.56 0.652,0.163 0.979,0.396 0.979,0.396 l -1.119,-6.502 4.638,0 1.724,10.138 C 1.678,-1.398 1.095,-0.536 0,0"
             style="fill:#003a78;fill-opacity:1;fill-rule:nonzero;stroke:none"
             id="path15100"
             inkscape:connector-curvature="0" />
        </g>
        <g
           id="g15102"
           transform="translate(164.7337,69.9063)">
          <path
             d="m 0,0 c -0.396,0.373 -0.862,0.792 -1.352,1.189 -0.489,0.419 -1.002,0.815 -1.491,1.188 -0.233,0.187 -0.443,0.35 -0.653,0.49 0.326,0.279 -0.326,1.002 -0.746,0.652 -0.023,-0.023 -0.023,-0.046 -0.046,-0.07 -0.513,0.373 -0.443,0.327 -1.026,0.746 0.233,0.163 0.257,0.28 0.303,0.513 0,0.279 -0.209,0.513 -0.489,0.513 -0.117,0 -0.21,-0.047 -0.303,-0.094 C -5.92,5.011 -5.99,4.848 -5.99,4.684 -6.432,4.987 -6.875,5.29 -7.318,5.593 -7.854,5.966 -8.39,6.316 -8.879,6.619 c -0.047,0.023 -0.07,0.046 -0.117,0.07 l 0,0.003 0,0.09 c 0,0.187 -0.256,0.699 -0.699,0.792 -0.443,0.094 -0.606,-0.046 -0.699,-0.093 L -10.487,7.528 -11,7.807 c 0.163,1.236 -0.07,1.189 -0.303,1.352 -0.163,0.117 -0.443,0.187 -0.723,0.14 -0.163,-0.046 -0.326,-0.14 -0.419,-0.326 -0.105,-0.256 -0.14,-0.326 -0.14,-0.347 -0.168,0.115 -0.614,0.393 -0.862,0.393 0.116,0.303 -0.024,0.583 -0.257,0.769 -0.326,0.234 -0.815,0.28 -1.025,0.024 -0.024,0 -0.047,-0.024 -0.07,-0.024 -0.326,-0.023 -0.373,0.07 -0.629,0.187 0.233,1.165 -0.35,1.375 -0.909,1.421 l -0.233,0 c -0.303,0 -0.466,-0.326 -0.653,-0.512 -0.28,0.116 -0.536,0.233 -0.792,0.326 -0.49,0.186 -0.956,0.373 -1.492,0.559 -0.163,0.07 -0.349,0.14 -0.513,0.21 0.164,0.21 0.257,0.466 0.257,0.746 0,0.652 -0.56,1.189 -1.235,1.189 l -0.07,0 c -0.257,-0.024 -0.513,-0.117 -0.699,-0.28 -0.257,-0.21 -0.42,-0.489 -0.443,-0.839 -0.14,0.07 -0.28,0.116 -0.396,0.14 -0.373,0.139 -0.653,0.233 -0.956,0.326 -0.21,0.047 -0.396,0.116 -0.653,0.187 -0.093,0.046 -0.233,0.069 -0.372,0.116 0.536,1.352 -0.327,2.051 -1.142,2.051 l -0.233,0 c -0.164,-0.047 -0.327,-0.093 -0.443,-0.187 -0.327,-0.209 -0.49,-0.629 -0.49,-1.048 0,-0.07 0,-0.14 0.024,-0.187 -0.21,0.047 -0.28,0.07 -0.397,0.093 -0.07,0 -0.163,0.024 -0.302,0.07 0.069,0.723 -0.187,1.189 -0.56,1.422 -0.21,0.14 -0.466,0.21 -0.699,0.21 -0.187,0 -0.35,-0.024 -0.466,-0.117 -0.117,-0.046 -0.21,-0.116 -0.28,-0.186 -0.256,-0.21 -0.256,-0.42 -0.396,-0.606 -0.163,0.046 -0.303,0.07 -0.443,0.093 -0.303,0.093 -0.559,0.14 -0.839,0.21 -0.186,0.046 -0.373,0.07 -0.583,0.116 -0.116,0.024 -0.233,0.047 -0.349,0.07 0.21,0.233 0.28,0.257 0.093,1.142 -0.07,0.373 -0.303,0.63 -0.606,0.769 -0.256,0.117 -0.536,0.163 -0.816,0.14 -0.163,-0.023 -0.326,-0.07 -0.489,-0.14 -0.349,-0.163 -0.769,-1.025 -0.583,-1.421 -0.202,-0.101 -0.543,-0.027 -0.585,-0.052 -0.048,0.481 -0.162,0.871 -0.277,1.147 1.422,-0.326 2.168,1.701 0.42,2.121 -0.839,0.186 -1.212,-0.909 -0.956,-1.445 -0.14,0.093 -0.349,0.14 -0.536,0.14 -0.256,0.023 -0.513,0 -0.652,-0.047 0.279,1.049 -0.35,1.538 -1.003,1.585 -0.769,0.046 -1.584,-0.513 -1.165,-1.562 -0.419,0 -0.186,-0.093 -0.466,0 -0.047,0 -0.117,0.024 -0.186,0.047 0,0.629 -0.07,1.631 -1.259,1.631 -0.256,0 -0.466,-0.07 -0.629,-0.186 -0.466,-0.28 -0.629,-0.886 -0.629,-1.352 -0.443,0 -0.583,0.07 -0.77,0 0.07,0.163 0.117,0.07 0.117,0.536 0,0.28 -0.163,0.63 -0.443,0.839 -0.186,0.163 -0.419,0.28 -0.722,0.257 -0.229,0 -0.445,-0.059 -0.635,-0.142 -0.064,-0.089 -0.137,-0.171 -0.228,-0.231 -0.086,-0.086 -0.192,-0.145 -0.307,-0.183 -0.078,-0.119 -0.137,-0.411 -0.113,-0.522 0.07,-0.396 0.071,-0.227 0.141,-0.414 -0.303,0.093 -0.187,0.093 -0.606,0.023 0.039,0.393 0.007,0.705 -0.171,0.956 -0.118,0.077 -0.301,0.205 -0.394,0.335 -0.204,0.138 -0.435,0.203 -0.647,0.178 -0.282,-0.029 -0.519,-0.115 -0.705,-0.237 0.189,0.206 0.309,0.486 0.309,0.796 0,0.629 -0.49,1.142 -1.072,1.142 -0.373,0 -0.723,-0.21 -0.909,-0.536 -0.094,-0.187 -0.163,-0.396 -0.163,-0.606 0,-0.233 0.069,-0.443 0.163,-0.606 0.186,-0.326 0.536,-0.536 0.909,-0.536 0.204,0 0.395,0.066 0.559,0.175 -0.148,-0.159 -0.233,-0.348 -0.233,-0.548 0,-0.466 0,-0.536 0.07,-0.699 -0.21,0.047 -0.327,0.07 -0.396,0.07 -0.117,0.023 -0.14,-0.023 -0.397,-0.117 0.094,0.187 -0.023,0.35 -0.023,0.56 0,0.373 -0.186,0.652 -0.489,0.815 -0.233,0.14 -0.513,0.21 -0.816,0.21 -0.629,0 -1.072,-0.582 -1.072,-1.049 0,-0.442 -0.047,-0.373 0.07,-0.559 -0.187,0.093 -0.07,0.023 -0.28,0.023 l -0.07,0 c -0.14,-0.023 -0.233,-0.046 -0.349,-0.093 0.07,0.163 0.116,0.35 0.116,0.536 0,0.443 -0.233,0.793 -0.559,0.979 -0.187,0.116 -0.42,0.163 -0.653,0.163 -0.676,0 -1.258,-0.396 -1.258,-1.119 0,-0.257 0.067,-0.515 0.185,-0.738 0.157,-0.121 0.292,-0.287 0.401,-0.462 0.168,-0.12 0.362,-0.198 0.579,-0.198 0.117,0 0.257,0.023 0.373,0.047 -0.093,-0.187 -0.14,-0.42 -0.14,-0.63 l 0,-0.069 c -0.093,-0.047 -0.513,-0.117 -0.513,0.046 0,0.165 -0.109,0.498 -0.299,0.804 -0.163,0.117 -0.302,0.275 -0.401,0.462 -0.189,0.147 -0.409,0.229 -0.651,0.179 l -0.024,0 c -0.256,-0.047 -0.489,-0.14 -0.676,-0.28 -0.086,-0.118 -0.199,-0.214 -0.326,-0.286 -0.165,-0.205 -0.256,-0.458 -0.256,-0.762 0,-0.163 0.047,-0.327 0.093,-0.466 -0.186,-0.024 -0.256,-0.047 -0.326,-0.07 -0.093,0 -0.163,-0.024 -0.35,-0.047 0.07,0.163 0.14,0.28 -0.093,0.769 -0.093,0.233 -0.233,0.466 -0.396,0.629 -0.187,0.14 -0.396,0.257 -0.699,0.28 l -0.117,0 c -0.21,0 -0.419,-0.047 -0.606,-0.14 -0.419,-0.209 -0.722,-0.629 -0.722,-1.118 0,-0.35 0,-0.63 0.209,-0.863 -0.116,-0.023 -0.233,-0.023 -0.326,-0.046 -0.326,-0.07 -0.582,-0.094 -0.839,-0.14 -0.21,-0.047 -0.443,-0.093 -0.699,-0.14 -0.117,-0.023 -0.256,-0.047 -0.396,-0.093 -0.047,0.279 -0.187,0.466 -0.42,0.606 -0.186,0.093 -0.442,0.14 -0.745,0.163 l -0.094,0 c -0.233,0 -0.443,-0.047 -0.606,-0.163 -0.419,-0.257 -0.652,-0.746 -0.652,-1.235 l 0,-0.164 c -0.093,-0.023 -0.163,-0.023 -0.187,-0.046 -0.093,0 -0.093,0.023 -0.303,-0.047 0,0.093 -0.046,0.792 -0.606,1.142 -0.163,0.093 -0.372,0.163 -0.652,0.163 -0.629,0.024 -1.189,-0.373 -1.189,-1.048 0,-0.28 -0.07,-0.606 0.094,-0.816 l -0.606,-0.187 -0.49,-0.163 -0.722,-0.233 -0.676,-0.21 c -0.023,-0.023 -0.28,1.026 -1.095,1.003 l -0.024,0 c -0.839,-0.024 -1.235,-0.42 -1.235,-1.096 0,-0.303 0.023,-0.629 0.186,-0.839 -0.186,-0.07 -0.373,-0.163 -0.559,-0.233 -0.536,-0.21 -1.002,-0.396 -1.538,-0.606 -0.187,-0.093 -0.396,-0.186 -0.606,-0.279 -0.163,0.326 -0.326,0.489 -0.769,0.489 l -0.093,0 c -0.723,-0.07 -1.096,-0.676 -0.839,-1.305 -0.233,-0.117 -0.396,-0.163 -0.63,-0.28 -0.07,0.07 -0.14,0.117 -0.209,0.14 -0.094,0.07 -0.21,0.093 -0.35,0.093 -0.28,0 -0.513,-0.093 -0.699,-0.256 -0.163,-0.163 -0.257,-0.373 -0.21,-0.606 -0.093,-0.07 -0.186,-0.117 -0.28,-0.117 -0.209,-0.093 -0.396,-0.186 -0.629,-0.326 -0.256,0.396 -0.233,0.513 -0.699,0.606 -0.07,0.023 -0.14,0.047 -0.233,0.047 -0.443,0.07 -0.792,-0.42 -0.792,-0.933 0,-0.303 0.046,-0.349 0.279,-0.512 -0.303,-0.163 -0.419,-0.233 -0.699,-0.397 -0.07,0.047 -0.116,0.094 -0.21,0.117 -0.093,0.023 -0.233,0.047 -0.442,0.047 -0.327,0 -0.77,-0.35 -0.77,-0.839 0,-0.047 0.024,-0.117 0.024,-0.187 -0.14,-0.07 -0.28,-0.163 -0.396,-0.256 -0.536,-0.326 -1.026,-0.653 -1.515,-0.956 -0.34,-0.231 -0.682,-0.466 -1.029,-0.704 0.002,-0.045 -0.003,-0.09 -0.02,-0.135 -0.117,-0.279 -0.256,-0.419 -0.513,-0.419 -0.072,0 -0.14,0.016 -0.203,0.044 -0.29,-0.202 -0.589,-0.423 -0.892,-0.65 -0.047,0.093 -0.117,0.116 -0.21,0.116 -0.07,0 -0.186,-0.023 -0.303,-0.023 -0.233,0 -0.536,-0.303 -0.536,-0.606 0,-0.116 -0.047,-0.093 0.047,-0.186 C -88.282,2.75 -88.491,2.61 -88.701,2.471 -89.191,2.098 -89.727,1.678 -90.216,1.235 -90.729,0.792 -91.218,0.373 -91.591,0 c -0.117,-0.116 -0.233,-0.21 -0.326,-0.303 -0.257,-0.256 -0.443,-0.419 -0.467,-0.466 0.024,0 0.14,0.047 0.373,0.186 0.14,0.094 0.28,0.164 0.42,0.257 0.443,0.256 0.909,0.536 1.375,0.792 0.489,0.28 1.002,0.56 1.515,0.839 0.466,0.257 0.932,0.49 1.398,0.723 0.443,0.233 0.862,0.443 1.305,0.652 0.513,0.233 1.026,0.49 1.562,0.723 0.489,0.209 1.002,0.443 1.515,0.652 0.512,0.233 1.048,0.443 1.584,0.653 0.536,0.21 1.096,0.419 1.655,0.606 0.443,0.163 0.886,0.326 1.328,0.466 0.164,0.07 0.327,0.116 0.49,0.163 0.349,0.117 0.699,0.233 1.049,0.35 0.559,0.163 1.095,0.326 1.678,0.489 0.466,0.14 0.978,0.28 1.468,0.419 0.513,0.117 1.025,0.257 1.538,0.373 0.536,0.14 1.072,0.28 1.632,0.397 0.582,0.116 1.165,0.256 1.771,0.373 0.233,0.046 0.466,0.093 0.722,0.139 0.163,0.047 0.326,0.07 0.49,0.094 0.559,0.116 1.118,0.209 1.701,0.326 0.21,0.023 0.443,0.07 0.652,0.093 0.303,0.023 0.606,0.093 0.909,0.14 0.28,0.023 0.56,0.07 0.839,0.117 0.233,0.046 0.466,0.069 0.7,0.116 0.233,0.023 0.489,0.07 0.745,0.093 0.257,0.047 0.536,0.07 0.816,0.117 0.233,0.023 0.466,0.046 0.699,0.093 0.28,0.023 0.56,0.07 0.839,0.093 0.257,0.047 0.536,0.07 0.839,0.093 0.233,0.024 0.49,0.07 0.723,0.094 0.233,0.023 1.258,0.116 1.538,0.163 0.256,0.023 0.536,0.046 0.815,0.07 0.21,0.023 0.443,0.046 0.676,0.046 0.793,0.07 1.585,0.14 2.401,0.21 0.256,0.023 0.536,0.023 0.792,0.047 0.723,0.046 1.445,0.093 2.168,0.139 0.303,0.024 0.606,0.047 0.909,0.047 0.629,0.047 1.281,0.07 1.934,0.093 l 1.631,0 c 0.536,0 1.072,0 1.585,-0.023 0.583,0 1.142,-0.023 1.725,-0.047 0.676,-0.023 1.375,-0.07 2.074,-0.093 0.536,-0.046 1.072,-0.07 1.631,-0.116 0.536,-0.024 1.096,-0.07 1.655,-0.117 1.002,-0.093 2.004,-0.186 3.006,-0.303 0.28,-0.023 0.537,-0.046 0.816,-0.093 0.28,-0.023 0.583,-0.07 0.862,-0.093 0.187,-0.024 0.373,-0.047 0.583,-0.07 0.28,-0.047 0.559,-0.093 0.839,-0.117 0.28,-0.046 0.56,-0.093 0.839,-0.14 0.233,-0.023 0.49,-0.07 0.746,-0.093 0.233,-0.046 0.466,-0.093 0.699,-0.116 0.28,-0.047 0.583,-0.093 0.862,-0.14 0.28,-0.07 0.583,-0.117 0.863,-0.163 0.233,-0.024 0.443,-0.047 0.676,-0.093 0.512,-0.094 1.025,-0.187 1.514,-0.303 0.234,-0.047 0.443,-0.094 0.653,-0.117 0.303,-0.07 0.629,-0.14 0.956,-0.21 0.279,-0.07 0.559,-0.14 0.839,-0.186 0.233,-0.07 0.466,-0.117 0.699,-0.187 0.536,-0.116 1.048,-0.233 1.561,-0.373 0.513,-0.116 1.002,-0.256 1.492,-0.396 0.559,-0.14 1.118,-0.303 1.678,-0.466 0.512,-0.163 1.025,-0.303 1.538,-0.466 0.373,-0.117 0.722,-0.233 1.095,-0.35 0.56,-0.186 1.119,-0.396 1.678,-0.582 0.513,-0.187 1.026,-0.373 1.539,-0.56 0.535,-0.209 1.072,-0.419 1.608,-0.629 0.536,-0.21 1.048,-0.443 1.561,-0.652 C -6.805,3.24 -6.292,3.03 -5.803,2.797 -5.267,2.54 -4.754,2.307 -4.242,2.051 -3.776,1.818 -3.309,1.585 -2.843,1.329 -2.331,1.072 -1.841,0.792 -1.352,0.513 -0.909,0.256 -0.443,0 0,-0.256 0.187,-0.373 0.373,-0.489 0.559,-0.606 0.419,-0.419 0.233,-0.21 0,0 m -38.175,16.407 c -0.07,0.024 -0.116,0.047 -0.186,0.093 0.046,0.234 0,0.373 -0.117,0.513 l 0.303,0 0.28,0 c 0.047,-0.373 -0.093,-0.629 -0.28,-0.606 m 25.604,-7.79 c 0.014,-0.002 0.034,-0.004 0.056,-0.04 -0.004,0.003 -0.026,0.019 -0.056,0.04"
             style="fill:#f39200;fill-opacity:1;fill-rule:nonzero;stroke:none"
             id="path15104"
             inkscape:connector-curvature="0" />
        </g>
        <g
           id="g15106"
           transform="translate(164.7337,70.5588)">
          <path
             d="M 0,0 C 0.117,0 0.187,0.093 0.187,0.21 0.187,0.326 0.117,0.42 0,0.42 -0.116,0.42 -0.21,0.326 -0.21,0.21 -0.21,0.093 -0.116,0 0,0"
             style="fill:#f39200;fill-opacity:1;fill-rule:nonzero;stroke:none"
             id="path15108"
             inkscape:connector-curvature="0" />
        </g>
        <g
           id="g15110"
           transform="translate(163.382,72.47)">
          <path
             d="M 0,0 C 0.14,0 0.256,0.116 0.256,0.28 0.256,0.419 0.14,0.536 0,0.536 -0.14,0.536 -0.256,0.419 -0.256,0.28 -0.256,0.116 -0.14,0 0,0"
             style="fill:#f39200;fill-opacity:1;fill-rule:nonzero;stroke:none"
             id="path15112"
             inkscape:connector-curvature="0" />
        </g>
        <g
           id="g15114"
           transform="translate(161.8903,74.1713)">
          <path
             d="M 0,0 C 0.21,0 0.373,0.163 0.373,0.373 0.373,0.559 0.21,0.746 0,0.746 -0.186,0.746 -0.373,0.559 -0.373,0.373 -0.373,0.163 -0.186,0 0,0"
             style="fill:#f39200;fill-opacity:1;fill-rule:nonzero;stroke:none"
             id="path15116"
             inkscape:connector-curvature="0" />
        </g>
        <g
           id="g15118"
           transform="translate(160.4921,76.1755)">
          <path
             d="M 0,0 C 0.21,0 0.373,0.163 0.373,0.373 0.373,0.559 0.21,0.722 0,0.722 -0.21,0.722 -0.373,0.559 -0.373,0.373 -0.373,0.163 -0.21,0 0,0"
             style="fill:#f39200;fill-opacity:1;fill-rule:nonzero;stroke:none"
             id="path15120"
             inkscape:connector-curvature="0" />
        </g>
        <g
           id="g15122"
           transform="translate(158.9305,78.0167)">
          <path
             d="M 0,0 C 0.21,0 0.373,0.163 0.373,0.373 0.373,0.559 0.21,0.722 0,0.722 -0.186,0.722 -0.373,0.559 -0.373,0.373 -0.373,0.163 -0.186,0 0,0"
             style="fill:#f39200;fill-opacity:1;fill-rule:nonzero;stroke:none"
             id="path15124"
             inkscape:connector-curvature="0" />
        </g>
        <g
           id="g15126"
           transform="translate(157.4157,76.9912)">
          <path
             d="m 0,0 c -0.186,-0.07 -0.326,-0.256 -0.326,-0.489 0,-0.233 0.14,-0.42 0.326,-0.49 0.07,-0.023 0.117,-0.023 0.186,-0.023 0.28,0 0.513,0.233 0.513,0.513 0,0.279 -0.233,0.512 -0.513,0.512 C 0.117,0.023 0.07,0.023 0,0"
             style="fill:#f39200;fill-opacity:1;fill-rule:nonzero;stroke:none"
             id="path15128"
             inkscape:connector-curvature="0" />
        </g>
        <g
           id="g15130"
           transform="translate(157.4157,79.9278)">
          <path
             d="M 0,0 C 0.21,0 0.373,0.163 0.373,0.349 0.373,0.559 0.21,0.722 0,0.722 -0.186,0.722 -0.35,0.559 -0.35,0.349 -0.35,0.163 -0.186,0 0,0"
             style="fill:#f39200;fill-opacity:1;fill-rule:nonzero;stroke:none"
             id="path15132"
             inkscape:connector-curvature="0" />
        </g>
        <g
           id="g15134"
           transform="translate(155.8542,78.8091)">
          <path
             d="m 0,0 c -0.14,-0.07 -0.256,-0.233 -0.256,-0.396 0,-0.187 0.116,-0.35 0.256,-0.42 0.07,-0.046 0.14,-0.07 0.233,-0.07 0.256,0 0.489,0.21 0.489,0.49 C 0.722,-0.14 0.489,0.07 0.233,0.07 0.14,0.07 0.07,0.047 0,0"
             style="fill:#f39200;fill-opacity:1;fill-rule:nonzero;stroke:none"
             id="path15136"
             inkscape:connector-curvature="0" />
        </g>
        <g
           id="g15138"
           transform="translate(155.8542,81.8621)">
          <path
             d="M 0,0 C 0.186,0 0.35,0.14 0.35,0.35 0.35,0.536 0.186,0.699 0,0.699 -0.21,0.699 -0.373,0.536 -0.373,0.35 -0.373,0.14 -0.21,0 0,0"
             style="fill:#f39200;fill-opacity:1;fill-rule:nonzero;stroke:none"
             id="path15140"
             inkscape:connector-curvature="0" />
        </g>
        <g
           id="g15142"
           transform="translate(154.2462,80.7201)">
          <path
             d="m 0,0 c -0.14,-0.093 -0.233,-0.256 -0.233,-0.419 0,-0.187 0.093,-0.327 0.233,-0.42 0.093,-0.07 0.186,-0.093 0.303,-0.093 0.28,0 0.513,0.233 0.513,0.513 0,0.279 -0.233,0.512 -0.513,0.512 C 0.186,0.093 0.093,0.047 0,0"
             style="fill:#f39200;fill-opacity:1;fill-rule:nonzero;stroke:none"
             id="path15144"
             inkscape:connector-curvature="0" />
        </g>
        <g
           id="g15146"
           transform="translate(154.2462,83.7965)">
          <path
             d="M 0,0 C 0.21,0 0.373,0.14 0.373,0.35 0.373,0.536 0.21,0.699 0,0.699 -0.21,0.699 -0.373,0.536 -0.373,0.35 -0.373,0.14 -0.21,0 0,0"
             style="fill:#f39200;fill-opacity:1;fill-rule:nonzero;stroke:none"
             id="path15148"
             inkscape:connector-curvature="0" />
        </g>
        <g
           id="g15150"
           transform="translate(152.708,82.7478)">
          <path
             d="m 0,0 c -0.186,-0.093 -0.326,-0.28 -0.326,-0.513 0,-0.233 0.14,-0.419 0.326,-0.512 0.07,-0.024 0.163,-0.047 0.233,-0.047 0.326,0 0.559,0.256 0.559,0.559 0,0.303 -0.233,0.56 -0.559,0.56 C 0.163,0.047 0.07,0.023 0,0"
             style="fill:#f39200;fill-opacity:1;fill-rule:nonzero;stroke:none"
             id="path15152"
             inkscape:connector-curvature="0" />
        </g>
        <g
           id="g15154"
           transform="translate(152.708,85.7076)">
          <path
             d="M 0,0 C 0.21,0 0.373,0.163 0.373,0.35 0.373,0.559 0.21,0.722 0,0.722 -0.186,0.722 -0.35,0.559 -0.35,0.35 -0.35,0.163 -0.186,0 0,0"
             style="fill:#f39200;fill-opacity:1;fill-rule:nonzero;stroke:none"
             id="path15156"
             inkscape:connector-curvature="0" />
        </g>
        <g
           id="g15158"
           transform="translate(151.03,80.9299)">
          <path
             d="m 0,0 c -0.093,-0.116 -0.14,-0.233 -0.14,-0.396 0,-0.14 0.047,-0.28 0.14,-0.373 0.116,-0.163 0.303,-0.256 0.513,-0.256 0.373,0 0.652,0.279 0.652,0.629 0,0.349 -0.279,0.652 -0.652,0.652 C 0.303,0.256 0.116,0.14 0,0"
             style="fill:#f39200;fill-opacity:1;fill-rule:nonzero;stroke:none"
             id="path15160"
             inkscape:connector-curvature="0" />
        </g>
        <g
           id="g15162"
           transform="translate(151.03,87.4787)">
          <path
             d="M 0,0 C 0.14,0 0.256,0.117 0.256,0.256 0.256,0.396 0.14,0.513 0,0.513 -0.14,0.513 -0.256,0.396 -0.256,0.256 -0.256,0.117 -0.14,0 0,0"
             style="fill:#f39200;fill-opacity:1;fill-rule:nonzero;stroke:none"
             id="path15164"
             inkscape:connector-curvature="0" />
        </g>
        <g
           id="g15166"
           transform="translate(150.8435,84.1927)">
          <path
             d="m 0,0 c 0,-0.163 0.07,-0.303 0.186,-0.419 0.094,-0.094 0.233,-0.14 0.373,-0.14 0.327,0 0.583,0.256 0.583,0.559 0,0.303 -0.256,0.536 -0.583,0.536 C 0.419,0.536 0.28,0.489 0.186,0.396 0.07,0.303 0,0.163 0,0"
             style="fill:#f39200;fill-opacity:1;fill-rule:nonzero;stroke:none"
             id="path15168"
             inkscape:connector-curvature="0" />
        </g>
        <g
           id="g15170"
           transform="translate(149.9345,85.591)">
          <path
             d="m 0,0 c 0.28,0 0.489,0.233 0.489,0.489 0,0.28 -0.209,0.49 -0.489,0.49 -0.28,0 -0.489,-0.21 -0.489,-0.49 C -0.489,0.233 -0.28,0 0,0"
             style="fill:#f39200;fill-opacity:1;fill-rule:nonzero;stroke:none"
             id="path15172"
             inkscape:connector-curvature="0" />
        </g>
        <g
           id="g15174"
           transform="translate(149.9345,81.6989)">
          <path
             d="m 0,0 0.047,0 c 0.349,0 0.606,0.28 0.606,0.606 0,0.326 -0.257,0.583 -0.606,0.583 L 0,1.189 C -0.303,1.165 -0.559,0.909 -0.559,0.606 -0.559,0.303 -0.303,0.047 0,0"
             style="fill:#f39200;fill-opacity:1;fill-rule:nonzero;stroke:none"
             id="path15176"
             inkscape:connector-curvature="0" />
        </g>
        <g
           id="g15178"
           transform="translate(148.3964,87.5487)">
          <path
             d="M 0,0 C 0.21,0 0.396,0.186 0.396,0.419 0.396,0.629 0.21,0.816 0,0.816 -0.233,0.816 -0.419,0.629 -0.419,0.419 -0.419,0.186 -0.233,0 0,0"
             style="fill:#f39200;fill-opacity:1;fill-rule:nonzero;stroke:none"
             id="path15180"
             inkscape:connector-curvature="0" />
        </g>
        <g
           id="g15182"
           transform="translate(148.3964,83.6101)">
          <path
             d="M 0,0 C 0.303,0 0.583,0.256 0.583,0.559 0.583,0.886 0.303,1.142 0,1.142 -0.326,1.142 -0.583,0.886 -0.583,0.559 -0.583,0.256 -0.326,0 0,0"
             style="fill:#f39200;fill-opacity:1;fill-rule:nonzero;stroke:none"
             id="path15184"
             inkscape:connector-curvature="0" />
        </g>
        <g
           id="g15186"
           transform="translate(146.7184,89.7161)">
          <path
             d="m 0,0 c 0.047,-0.023 0.093,-0.023 0.14,-0.023 0.163,0 0.303,0.139 0.303,0.303 0,0.186 -0.14,0.326 -0.303,0.326 C 0.093,0.606 0.047,0.583 0,0.583 -0.093,0.536 -0.186,0.419 -0.186,0.28 -0.186,0.163 -0.093,0.047 0,0"
             style="fill:#f39200;fill-opacity:1;fill-rule:nonzero;stroke:none"
             id="path15188"
             inkscape:connector-curvature="0" />
        </g>
        <g
           id="g15190"
           transform="translate(146.7184,85.4745)">
          <path
             d="M 0,0 C 0.303,0 0.559,0.233 0.559,0.536 0.559,0.839 0.303,1.072 0,1.072 -0.303,1.072 -0.536,0.839 -0.536,0.536 -0.536,0.233 -0.303,0 0,0"
             style="fill:#f39200;fill-opacity:1;fill-rule:nonzero;stroke:none"
             id="path15192"
             inkscape:connector-curvature="0" />
        </g>
        <g
           id="g15194"
           transform="translate(146.7184,81.3727)">
          <path
             d="m 0,0 0.117,0 c 0.489,0 0.885,0.396 0.885,0.862 0,0.49 -0.396,0.886 -0.885,0.886 L 0,1.748 C -0.443,1.701 -0.792,1.328 -0.792,0.862 -0.792,0.419 -0.443,0.047 0,0"
             style="fill:#f39200;fill-opacity:1;fill-rule:nonzero;stroke:none"
             id="path15196"
             inkscape:connector-curvature="0" />
        </g>
        <g
           id="g15198"
           transform="translate(145.2268,85.1017)">
          <path
             d="m 0,0 c -0.396,-0.047 -0.722,-0.373 -0.722,-0.769 0,-0.42 0.326,-0.746 0.722,-0.793 l 0.07,0 c 0.443,0 0.792,0.35 0.792,0.793 C 0.862,-0.35 0.513,0 0.07,0 L 0,0 Z"
             style="fill:#f39200;fill-opacity:1;fill-rule:nonzero;stroke:none"
             id="path15200"
             inkscape:connector-curvature="0" />
        </g>
        <g
           id="g15202"
           transform="translate(145.2268,91.4874)">
          <path
             d="m 0,0 c 0.163,0 0.28,0.14 0.28,0.303 0,0.14 -0.117,0.28 -0.28,0.28 -0.163,0 -0.28,-0.14 -0.28,-0.28 C -0.28,0.14 -0.163,0 0,0"
             style="fill:#f39200;fill-opacity:1;fill-rule:nonzero;stroke:none"
             id="path15204"
             inkscape:connector-curvature="0" />
        </g>
        <g
           id="g15206"
           transform="translate(145.2268,87.4555)">
          <path
             d="M 0,0 C 0.303,0 0.559,0.233 0.559,0.536 0.559,0.839 0.303,1.072 0,1.072 -0.28,1.072 -0.536,0.839 -0.536,0.536 -0.536,0.233 -0.28,0 0,0"
             style="fill:#f39200;fill-opacity:1;fill-rule:nonzero;stroke:none"
             id="path15208"
             inkscape:connector-curvature="0" />
        </g>
        <g
           id="g15210"
           transform="translate(143.6654,93.2585)">
          <path
             d="M 0,0 C 0.116,0.023 0.21,0.117 0.21,0.233 0.21,0.35 0.116,0.443 0,0.443 -0.117,0.443 -0.21,0.35 -0.21,0.233 -0.21,0.117 -0.117,0 0,0"
             style="fill:#f39200;fill-opacity:1;fill-rule:nonzero;stroke:none"
             id="path15212"
             inkscape:connector-curvature="0" />
        </g>
        <g
           id="g15214"
           transform="translate(143.6654,89.4597)">
          <path
             d="M 0,0 C 0.28,0 0.513,0.233 0.513,0.49 0.513,0.769 0.28,0.979 0,0.979 -0.256,0.979 -0.49,0.769 -0.49,0.49 -0.49,0.233 -0.256,0 0,0"
             style="fill:#f39200;fill-opacity:1;fill-rule:nonzero;stroke:none"
             id="path15216"
             inkscape:connector-curvature="0" />
        </g>
        <g
           id="g15218"
           transform="translate(143.6654,85.288)">
          <path
             d="m 0,0 0.07,0 c 0.419,0 0.769,0.35 0.769,0.792 0,0.42 -0.35,0.77 -0.769,0.77 L 0,1.562 C -0.35,1.538 -0.629,1.282 -0.699,0.956 -0.722,0.909 -0.722,0.839 -0.722,0.792 c 0,-0.069 0,-0.139 0.023,-0.186 C -0.629,0.28 -0.35,0.023 0,0"
             style="fill:#f39200;fill-opacity:1;fill-rule:nonzero;stroke:none"
             id="path15220"
             inkscape:connector-curvature="0" />
        </g>
        <g
           id="g15222"
           transform="translate(142.1273,85.4279)">
          <path
             d="m 0,0 c -0.07,0 -0.14,0.023 -0.21,0.023 -0.303,0 -0.559,-0.116 -0.746,-0.303 -0.209,-0.186 -0.326,-0.442 -0.326,-0.745 0,-0.303 0.117,-0.56 0.326,-0.746 0.187,-0.187 0.443,-0.303 0.746,-0.303 0.07,0 0.14,0.023 0.21,0.023 0.419,0.093 0.746,0.396 0.839,0.816 0,0.07 0.023,0.14 0.023,0.21 0,0.069 -0.023,0.139 -0.023,0.209 C 0.746,-0.396 0.419,-0.093 0,0"
             style="fill:#f39200;fill-opacity:1;fill-rule:nonzero;stroke:none"
             id="path15224"
             inkscape:connector-curvature="0" />
        </g>
        <g
           id="g15226"
           transform="translate(142.1039,91.7203)">
          <path
             d="m 0,0 0.023,0 c 0.187,0 0.373,0.187 0.373,0.373 0,0.21 -0.186,0.396 -0.373,0.396 L 0,0.769 C -0.21,0.769 -0.373,0.583 -0.373,0.373 -0.373,0.163 -0.21,0 0,0"
             style="fill:#f39200;fill-opacity:1;fill-rule:nonzero;stroke:none"
             id="path15228"
             inkscape:connector-curvature="0" />
        </g>
        <g
           id="g15230"
           transform="translate(142.1273,87.3156)">
          <path
             d="M 0,0 C 0.396,0 0.699,0.303 0.699,0.699 0.699,1.072 0.396,1.398 0,1.398 -0.396,1.398 -0.723,1.072 -0.723,0.699 -0.723,0.303 -0.396,0 0,0"
             style="fill:#f39200;fill-opacity:1;fill-rule:nonzero;stroke:none"
             id="path15232"
             inkscape:connector-curvature="0" />
        </g>
        <g
           id="g15234"
           transform="translate(140.5191,93.4682)">
          <path
             d="M 0,0 0.023,0 C 0.186,0 0.35,0.14 0.35,0.326 0.35,0.513 0.186,0.653 0.023,0.653 L 0,0.653 c -0.163,0 -0.303,-0.14 -0.303,-0.327 C -0.303,0.14 -0.163,0 0,0"
             style="fill:#f39200;fill-opacity:1;fill-rule:nonzero;stroke:none"
             id="path15236"
             inkscape:connector-curvature="0" />
        </g>
        <g
           id="g15238"
           transform="translate(140.5191,89.4131)">
          <path
             d="M 0,0 C 0.35,0 0.629,0.256 0.629,0.606 0.629,0.956 0.35,1.212 0,1.212 -0.326,1.212 -0.606,0.956 -0.606,0.606 -0.606,0.256 -0.326,0 0,0"
             style="fill:#f39200;fill-opacity:1;fill-rule:nonzero;stroke:none"
             id="path15240"
             inkscape:connector-curvature="0" />
        </g>
        <g
           id="g15242"
           transform="translate(140.5191,85.4046)">
          <path
             d="m 0,0 c 0.07,0 0.116,-0.023 0.186,-0.023 0.164,0 0.327,0.07 0.467,0.163 0.186,0.14 0.326,0.396 0.326,0.652 0,0.257 -0.14,0.49 -0.326,0.653 C 0.513,1.538 0.326,1.608 0.14,1.608 0.093,1.608 0.047,1.608 0,1.585 -0.373,1.538 -0.653,1.189 -0.653,0.792 -0.653,0.396 -0.373,0.07 0,0"
             style="fill:#f39200;fill-opacity:1;fill-rule:nonzero;stroke:none"
             id="path15244"
             inkscape:connector-curvature="0" />
        </g>
        <g
           id="g15246"
           transform="translate(139.0043,95.426)">
          <path
             d="m 0,0 c 0.023,-0.023 0.046,-0.023 0.046,-0.023 0.164,0 0.28,0.139 0.28,0.279 0,0.163 -0.116,0.28 -0.28,0.28 L 0,0.536 C -0.117,0.489 -0.21,0.396 -0.21,0.256 -0.21,0.14 -0.117,0.023 0,0"
             style="fill:#f39200;fill-opacity:1;fill-rule:nonzero;stroke:none"
             id="path15248"
             inkscape:connector-curvature="0" />
        </g>
        <g
           id="g15250"
           transform="translate(139.0043,91.2543)">
          <path
             d="M 0,0 C 0.326,0 0.583,0.256 0.583,0.583 0.583,0.886 0.326,1.142 0,1.142 -0.303,1.142 -0.559,0.886 -0.559,0.583 -0.559,0.256 -0.303,0.023 0,0"
             style="fill:#f39200;fill-opacity:1;fill-rule:nonzero;stroke:none"
             id="path15252"
             inkscape:connector-curvature="0" />
        </g>
        <g
           id="g15254"
           transform="translate(138.3283,87.5254)">
          <path
             d="m 0,0 c 0.163,-0.186 0.396,-0.326 0.676,-0.326 0.466,0 0.839,0.373 0.839,0.839 0,0.443 -0.373,0.815 -0.839,0.815 C 0.396,1.328 0.163,1.212 0,1.002 -0.116,0.862 -0.163,0.699 -0.163,0.513 -0.163,0.326 -0.116,0.14 0,0"
             style="fill:#f39200;fill-opacity:1;fill-rule:nonzero;stroke:none"
             id="path15256"
             inkscape:connector-curvature="0" />
        </g>
        <g
           id="g15258"
           transform="translate(137.4428,93.3051)">
          <path
             d="m 0,0 0.023,0 c 0.233,0.023 0.396,0.21 0.396,0.42 0,0.233 -0.163,0.419 -0.396,0.442 L 0,0.862 C -0.256,0.862 -0.443,0.676 -0.443,0.42 -0.443,0.187 -0.256,0 0,0"
             style="fill:#f39200;fill-opacity:1;fill-rule:nonzero;stroke:none"
             id="path15260"
             inkscape:connector-curvature="0" />
        </g>
        <g
           id="g15262"
           transform="translate(137.466,89.2966)">
          <path
             d="M 0,0 C 0.396,0 0.699,0.326 0.699,0.699 0.699,1.072 0.396,1.398 0,1.398 -0.396,1.398 -0.699,1.072 -0.699,0.699 -0.699,0.326 -0.396,0 0,0"
             style="fill:#f39200;fill-opacity:1;fill-rule:nonzero;stroke:none"
             id="path15264"
             inkscape:connector-curvature="0" />
        </g>
        <g
           id="g15266"
           transform="translate(136.464,86.4533)">
          <path
             d="m 0,0 c 0,-0.186 0.047,-0.35 0.14,-0.513 0.186,-0.279 0.489,-0.466 0.862,-0.466 l 0.023,0 c 0.35,0 0.653,0.163 0.839,0.443 0.117,0.14 0.187,0.35 0.187,0.536 0,0.21 -0.07,0.396 -0.187,0.559 -0.186,0.28 -0.489,0.443 -0.839,0.443 l -0.023,0 C 0.629,1.002 0.326,0.816 0.14,0.536 0.047,0.373 0,0.186 0,0"
             style="fill:#f39200;fill-opacity:1;fill-rule:nonzero;stroke:none"
             id="path15268"
             inkscape:connector-curvature="0" />
        </g>
        <g
           id="g15270"
           transform="translate(136.161,97.407)">
          <path
             d="M 0,0 C 0.116,0 0.21,0.093 0.21,0.21 0.21,0.349 0.116,0.443 0,0.443 -0.116,0.443 -0.21,0.349 -0.21,0.21 -0.21,0.093 -0.116,0 0,0"
             style="fill:#f39200;fill-opacity:1;fill-rule:nonzero;stroke:none"
             id="path15272"
             inkscape:connector-curvature="0" />
        </g>
        <g
           id="g15274"
           transform="translate(135.9046,95.2861)">
          <path
             d="m 0,0 c 0.023,0 0.047,-0.023 0.07,-0.023 0.233,0 0.396,0.186 0.396,0.396 0,0.233 -0.163,0.396 -0.396,0.396 L 0,0.769 C -0.186,0.722 -0.303,0.583 -0.303,0.373 -0.303,0.187 -0.186,0.023 0,0"
             style="fill:#f39200;fill-opacity:1;fill-rule:nonzero;stroke:none"
             id="path15276"
             inkscape:connector-curvature="0" />
        </g>
        <g
           id="g15278"
           transform="translate(135.9046,91.3009)">
          <path
             d="m 0,0 c 0.023,-0.023 0.07,-0.023 0.093,-0.023 0.28,0 0.513,0.186 0.606,0.419 0.023,0.07 0.047,0.14 0.047,0.21 0,0.07 -0.024,0.163 -0.047,0.21 C 0.606,1.072 0.373,1.235 0.093,1.235 L 0,1.235 C -0.303,1.165 -0.536,0.909 -0.536,0.606 -0.536,0.303 -0.303,0.047 0,0"
             style="fill:#f39200;fill-opacity:1;fill-rule:nonzero;stroke:none"
             id="path15280"
             inkscape:connector-curvature="0" />
        </g>
        <g
           id="g15282"
           transform="translate(135.1588,87.7351)">
          <path
             d="m 0,0 c 0.14,-0.256 0.419,-0.443 0.746,-0.443 0.279,0 0.536,0.14 0.699,0.35 0.093,0.14 0.14,0.303 0.14,0.466 0,0.186 -0.047,0.35 -0.14,0.466 C 1.282,1.072 1.025,1.212 0.746,1.212 0.419,1.212 0.14,1.025 0,0.769 -0.07,0.653 -0.093,0.513 -0.093,0.373 -0.093,0.256 -0.07,0.117 0,0"
             style="fill:#f39200;fill-opacity:1;fill-rule:nonzero;stroke:none"
             id="path15284"
             inkscape:connector-curvature="0" />
        </g>
        <g
           id="g15286"
           transform="translate(134.3198,97.2206)">
          <path
             d="M 0,0 C 0.163,0 0.303,0.14 0.303,0.303 0.303,0.489 0.163,0.629 0,0.629 -0.163,0.629 -0.303,0.489 -0.303,0.303 -0.303,0.14 -0.163,0 0,0"
             style="fill:#f39200;fill-opacity:1;fill-rule:nonzero;stroke:none"
             id="path15288"
             inkscape:connector-curvature="0" />
        </g>
        <g
           id="g15290"
           transform="translate(134.3198,93.142)">
          <path
             d="m 0,0 c 0.023,-0.023 0.023,-0.023 0.047,-0.023 0.303,0 0.559,0.256 0.559,0.582 0,0.303 -0.256,0.56 -0.559,0.56 L 0,1.119 C -0.303,1.095 -0.536,0.862 -0.536,0.559 -0.536,0.256 -0.303,0 0,0"
             style="fill:#f39200;fill-opacity:1;fill-rule:nonzero;stroke:none"
             id="path15292"
             inkscape:connector-curvature="0" />
        </g>
        <g
           id="g15294"
           transform="translate(134.3198,89.2733)">
          <path
             d="M 0,0 C 0.419,0 0.746,0.326 0.746,0.723 0.746,1.142 0.419,1.468 0,1.468 -0.419,1.468 -0.746,1.142 -0.746,0.723 -0.746,0.326 -0.419,0 0,0"
             style="fill:#f39200;fill-opacity:1;fill-rule:nonzero;stroke:none"
             id="path15296"
             inkscape:connector-curvature="0" />
        </g>
        <g
           id="g15298"
           transform="translate(134.2034,85.358)">
          <path
             d="m 0,0 c 0.023,0 0.07,0 0.116,0.023 0.373,0.047 0.676,0.28 0.839,0.63 0.047,0.139 0.094,0.303 0.094,0.466 0,0.163 -0.047,0.326 -0.094,0.466 C 0.792,1.934 0.489,2.191 0.116,2.237 L 0,2.237 c -0.28,0 -0.536,-0.116 -0.722,-0.303 -0.21,-0.209 -0.35,-0.489 -0.35,-0.815 0,-0.327 0.14,-0.606 0.35,-0.816 C -0.536,0.116 -0.28,0 0,0"
             style="fill:#f39200;fill-opacity:1;fill-rule:nonzero;stroke:none"
             id="path15300"
             inkscape:connector-curvature="0" />
        </g>
        <g
           id="g15302"
           transform="translate(133.8071,88.2478)">
          <path
             d="m 0,0 c 0,0.303 -0.14,0.583 -0.326,0.769 -0.164,0.117 -0.373,0.21 -0.583,0.21 -0.396,0 -0.746,-0.28 -0.862,-0.653 C -1.795,0.233 -1.818,0.117 -1.818,0 c 0,-0.093 0.023,-0.21 0.047,-0.303 0.116,-0.373 0.466,-0.652 0.862,-0.652 0.21,0 0.419,0.069 0.583,0.209 C -0.14,-0.559 0,-0.28 0,0"
             style="fill:#f39200;fill-opacity:1;fill-rule:nonzero;stroke:none"
             id="path15304"
             inkscape:connector-curvature="0" />
        </g>
        <g
           id="g15306"
           transform="translate(132.7817,99.2248)">
          <path
             d="M 0,0 C 0.047,0 0.093,0 0.116,0.023 0.186,0.07 0.21,0.14 0.21,0.21 0.21,0.303 0.186,0.373 0.116,0.419 0.093,0.419 0.047,0.443 0,0.443 -0.117,0.443 -0.21,0.35 -0.21,0.21 -0.21,0.093 -0.117,0 0,0"
             style="fill:#f39200;fill-opacity:1;fill-rule:nonzero;stroke:none"
             id="path15308"
             inkscape:connector-curvature="0" />
        </g>
        <g
           id="g15310"
           transform="translate(132.8749,95.2629)">
          <path
             d="m 0,0 0.023,0 c 0.257,0.023 0.466,0.233 0.466,0.489 0,0.257 -0.209,0.466 -0.466,0.49 L 0,0.979 c -0.256,0 -0.489,-0.233 -0.489,-0.49 C -0.489,0.233 -0.256,0 0,0"
             style="fill:#f39200;fill-opacity:1;fill-rule:nonzero;stroke:none"
             id="path15312"
             inkscape:connector-curvature="0" />
        </g>
        <g
           id="g15314"
           transform="translate(132.8049,91.231)">
          <path
             d="M 0,0 0.093,0 C 0.35,0.047 0.583,0.21 0.676,0.443 0.699,0.536 0.722,0.606 0.722,0.722 0.722,0.816 0.699,0.886 0.676,0.979 0.583,1.212 0.35,1.375 0.093,1.422 L 0,1.422 c -0.396,0 -0.722,-0.327 -0.722,-0.7 C -0.722,0.326 -0.396,0 0,0"
             style="fill:#f39200;fill-opacity:1;fill-rule:nonzero;stroke:none"
             id="path15316"
             inkscape:connector-curvature="0" />
        </g>
        <g
           id="g15318"
           transform="translate(131.2202,97.2438)">
          <path
             d="m 0,0 c 0.07,-0.023 0.117,-0.046 0.186,-0.046 0.21,0 0.397,0.186 0.397,0.396 0,0.209 -0.187,0.396 -0.397,0.396 C 0.117,0.746 0.07,0.723 0,0.699 -0.117,0.629 -0.21,0.49 -0.21,0.35 -0.21,0.187 -0.117,0.07 0,0"
             style="fill:#f39200;fill-opacity:1;fill-rule:nonzero;stroke:none"
             id="path15320"
             inkscape:connector-curvature="0" />
        </g>
        <g
           id="g15322"
           transform="translate(131.2202,93.2585)">
          <path
             d="m 0,0 0.07,0 c 0.373,0 0.676,0.303 0.676,0.653 0,0.373 -0.303,0.652 -0.676,0.652 L 0,1.305 C -0.326,1.282 -0.583,1.002 -0.583,0.653 -0.583,0.326 -0.326,0.047 0,0"
             style="fill:#f39200;fill-opacity:1;fill-rule:nonzero;stroke:none"
             id="path15324"
             inkscape:connector-curvature="0" />
        </g>
        <g
           id="g15326"
           transform="translate(131.2202,89.0635)">
          <path
             d="m 0,0 c 0.373,0 0.699,0.256 0.816,0.606 0.023,0.093 0.046,0.186 0.046,0.303 0,0.093 -0.023,0.21 -0.046,0.303 C 0.699,1.562 0.373,1.818 0,1.818 -0.466,1.818 -0.839,1.398 -0.839,0.909 -0.839,0.396 -0.466,0 0,0"
             style="fill:#f39200;fill-opacity:1;fill-rule:nonzero;stroke:none"
             id="path15328"
             inkscape:connector-curvature="0" />
        </g>
        <g
           id="g15330"
           transform="translate(128.2137,90.928)">
          <path
             d="m 0,0 c -0.559,0 -1.025,-0.466 -1.025,-1.025 0,-0.537 0.466,-1.003 1.025,-1.003 0.536,0 1.002,0.466 1.002,1.003 C 1.002,-0.466 0.536,0 0,0"
             style="fill:#f39200;fill-opacity:1;fill-rule:nonzero;stroke:none"
             id="path15332"
             inkscape:connector-curvature="0" />
        </g>
        <g
           id="g15334"
           transform="translate(129.6354,99.2248)">
          <path
             d="M 0,0 C 0.116,0 0.21,0.093 0.21,0.21 0.21,0.326 0.116,0.419 0,0.419 -0.093,0.419 -0.186,0.326 -0.186,0.21 -0.186,0.093 -0.093,0 0,0"
             style="fill:#f39200;fill-opacity:1;fill-rule:nonzero;stroke:none"
             id="path15336"
             inkscape:connector-curvature="0" />
        </g>
        <g
           id="g15338"
           transform="translate(129.6354,95.0764)">
          <path
             d="m 0,0 c 0.326,0 0.583,0.256 0.583,0.559 0,0.303 -0.257,0.56 -0.583,0.56 -0.303,0 -0.559,-0.257 -0.559,-0.56 C -0.559,0.256 -0.303,0 0,0"
             style="fill:#f39200;fill-opacity:1;fill-rule:nonzero;stroke:none"
             id="path15340"
             inkscape:connector-curvature="0" />
        </g>
        <g
           id="g15342"
           transform="translate(129.6587,90.928)">
          <path
             d="M 0,0 C 0.489,0 0.909,0.396 0.909,0.886 0.909,1.398 0.489,1.795 0,1.795 -0.489,1.795 -0.909,1.398 -0.909,0.886 -0.909,0.396 -0.489,0 0,0"
             style="fill:#f39200;fill-opacity:1;fill-rule:nonzero;stroke:none"
             id="path15344"
             inkscape:connector-curvature="0" />
        </g>
        <g
           id="g15346"
           transform="translate(128.1905,100.8562)">
          <path
             d="M 0,0 0.023,0 C 0.116,0.023 0.21,0.116 0.21,0.233 0.21,0.35 0.116,0.443 0.023,0.443 L 0,0.443 C -0.117,0.443 -0.21,0.35 -0.21,0.233 -0.21,0.093 -0.117,0 0,0"
             style="fill:#f39200;fill-opacity:1;fill-rule:nonzero;stroke:none"
             id="path15348"
             inkscape:connector-curvature="0" />
        </g>
        <g
           id="g15350"
           transform="translate(128.1438,97.1041)">
          <path
             d="m 0,0 0.07,0 c 0.186,0.047 0.349,0.233 0.349,0.443 0,0.209 -0.163,0.396 -0.349,0.419 L 0,0.862 C -0.233,0.862 -0.443,0.676 -0.443,0.443 -0.443,0.21 -0.233,0 0,0"
             style="fill:#f39200;fill-opacity:1;fill-rule:nonzero;stroke:none"
             id="path15352"
             inkscape:connector-curvature="0" />
        </g>
        <g
           id="g15354"
           transform="translate(128.1206,93.1887)">
          <path
             d="m 0,0 0.093,0 c 0.326,0.047 0.606,0.326 0.606,0.676 0,0.349 -0.28,0.652 -0.606,0.676 C 0.047,1.352 0.023,1.375 0,1.375 -0.373,1.375 -0.676,1.049 -0.676,0.676 -0.676,0.303 -0.373,0 0,0"
             style="fill:#f39200;fill-opacity:1;fill-rule:nonzero;stroke:none"
             id="path15356"
             inkscape:connector-curvature="0" />
        </g>
        <g
           id="g15358"
           transform="translate(126.5591,99.2482)">
          <path
             d="m 0,0 c 0.023,0 0.047,-0.023 0.07,-0.023 0.163,0 0.303,0.139 0.303,0.326 0,0.163 -0.14,0.303 -0.303,0.303 L 0,0.606 C -0.14,0.559 -0.256,0.443 -0.256,0.303 -0.256,0.14 -0.14,0.023 0,0"
             style="fill:#f39200;fill-opacity:1;fill-rule:nonzero;stroke:none"
             id="path15360"
             inkscape:connector-curvature="0" />
        </g>
        <g
           id="g15362"
           transform="translate(126.5591,95.0997)">
          <path
             d="m 0,0 0.023,0 c 0.327,0 0.606,0.28 0.606,0.606 0,0.35 -0.279,0.629 -0.606,0.629 L 0,1.235 C -0.326,1.212 -0.606,0.932 -0.606,0.606 -0.606,0.28 -0.326,0 0,0"
             style="fill:#f39200;fill-opacity:1;fill-rule:nonzero;stroke:none"
             id="path15364"
             inkscape:connector-curvature="0" />
        </g>
        <g
           id="g15366"
           transform="translate(126.5591,91.0213)">
          <path
             d="M 0,0 C 0.443,0 0.816,0.396 0.816,0.862 0.816,1.328 0.443,1.724 0,1.724 -0.443,1.701 -0.816,1.328 -0.816,0.862 -0.816,0.396 -0.443,0.023 0,0"
             style="fill:#f39200;fill-opacity:1;fill-rule:nonzero;stroke:none"
             id="path15368"
             inkscape:connector-curvature="0" />
        </g>
        <g
           id="g15370"
           transform="translate(124.9276,90.9979)">
          <path
             d="m 0,0 c -0.489,0 -0.909,-0.419 -0.909,-0.932 0,-0.536 0.42,-0.956 0.909,-0.956 0.49,0 0.886,0.42 0.886,0.956 C 0.886,-0.419 0.49,0 0,0"
             style="fill:#f39200;fill-opacity:1;fill-rule:nonzero;stroke:none"
             id="path15372"
             inkscape:connector-curvature="0" />
        </g>
        <g
           id="g15374"
           transform="translate(125.1607,101.1824)">
          <path
             d="M 0,0 C 0.117,0 0.21,0.117 0.21,0.233 0.21,0.35 0.117,0.443 0,0.443 -0.117,0.443 -0.233,0.35 -0.233,0.233 -0.233,0.117 -0.117,0 0,0"
             style="fill:#f39200;fill-opacity:1;fill-rule:nonzero;stroke:none"
             id="path15376"
             inkscape:connector-curvature="0" />
        </g>
        <g
           id="g15378"
           transform="translate(124.9276,97.1273)">
          <path
             d="m 0,0 0.023,0 c 0.233,0 0.42,0.186 0.42,0.419 0,0.21 -0.187,0.42 -0.42,0.42 C 0,0.839 0,0.816 0,0.816 -0.233,0.816 -0.396,0.629 -0.396,0.419 -0.396,0.186 -0.233,0 0,0"
             style="fill:#f39200;fill-opacity:1;fill-rule:nonzero;stroke:none"
             id="path15380"
             inkscape:connector-curvature="0" />
        </g>
        <g
           id="g15382"
           transform="translate(124.9276,93.1887)">
          <path
             d="m 0,0 0.047,0 c 0.396,0 0.699,0.326 0.699,0.746 0,0.419 -0.303,0.746 -0.699,0.746 L 0,1.492 C -0.373,1.468 -0.653,1.142 -0.653,0.746 -0.653,0.35 -0.373,0.023 0,0"
             style="fill:#f39200;fill-opacity:1;fill-rule:nonzero;stroke:none"
             id="path15384"
             inkscape:connector-curvature="0" />
        </g>
        <g
           id="g15386"
           transform="translate(123.506,91.0679)">
          <path
             d="m 0,0 c 0.419,0 0.792,0.373 0.792,0.839 0,0.466 -0.373,0.839 -0.792,0.839 -0.28,0 -0.513,-0.163 -0.652,-0.373 -0.094,-0.14 -0.14,-0.303 -0.14,-0.466 0,-0.187 0.046,-0.326 0.14,-0.466 C -0.513,0.14 -0.28,0 0,0"
             style="fill:#f39200;fill-opacity:1;fill-rule:nonzero;stroke:none"
             id="path15388"
             inkscape:connector-curvature="0" />
        </g>
        <g
           id="g15390"
           transform="translate(123.3428,95.0764)">
          <path
             d="M 0,0 C 0.35,0 0.629,0.303 0.629,0.653 0.629,1.025 0.35,1.328 0,1.328 c -0.21,0 -0.373,-0.116 -0.489,-0.279 -0.094,-0.093 -0.14,-0.233 -0.14,-0.396 0,-0.14 0.046,-0.28 0.14,-0.397 C -0.373,0.093 -0.21,0 0,0"
             style="fill:#f39200;fill-opacity:1;fill-rule:nonzero;stroke:none"
             id="path15392"
             inkscape:connector-curvature="0" />
        </g>
        <g
           id="g15394"
           transform="translate(123.4127,99.3413)">
          <path
             d="M 0,0 C 0.186,0 0.303,0.14 0.303,0.303 0.303,0.466 0.186,0.606 0,0.606 -0.163,0.606 -0.303,0.466 -0.303,0.303 -0.303,0.14 -0.163,0 0,0"
             style="fill:#f39200;fill-opacity:1;fill-rule:nonzero;stroke:none"
             id="path15396"
             inkscape:connector-curvature="0" />
        </g>
        <g
           id="g15398"
           transform="translate(123.4127,102.7672)">
          <path
             d="m 0,0 c 0.117,0 0.21,0.093 0.21,0.186 0,0.117 -0.093,0.21 -0.21,0.21 -0.093,0 -0.186,-0.093 -0.186,-0.21 C -0.186,0.093 -0.093,0 0,0"
             style="fill:#f39200;fill-opacity:1;fill-rule:nonzero;stroke:none"
             id="path15400"
             inkscape:connector-curvature="0" />
        </g>
        <g
           id="g15402"
           transform="translate(122.8535,89.6695)">
          <path
             d="M 0,0 C 0.07,0.163 0.116,0.35 0.116,0.536 0.116,0.722 0.07,0.909 0,1.072 c -0.186,0.35 -0.559,0.583 -1.002,0.583 -0.257,0 -0.513,-0.093 -0.723,-0.257 -0.233,-0.209 -0.373,-0.512 -0.373,-0.862 0,-0.326 0.14,-0.652 0.373,-0.839 0.21,-0.163 0.466,-0.28 0.723,-0.28 0.443,0 0.816,0.233 1.002,0.583"
             style="fill:#f39200;fill-opacity:1;fill-rule:nonzero;stroke:none"
             id="path15404"
             inkscape:connector-curvature="0" />
        </g>
        <g
           id="g15406"
           transform="translate(121.7815,93.1188)">
          <path
             d="m 0,0 c 0.373,0 0.676,0.303 0.676,0.699 0,0.396 -0.303,0.723 -0.676,0.723 -0.303,0 -0.559,-0.21 -0.653,-0.513 0,-0.047 -0.023,-0.117 -0.023,-0.21 0,-0.07 0.023,-0.14 0.023,-0.21 C -0.559,0.21 -0.303,0 0,0"
             style="fill:#f39200;fill-opacity:1;fill-rule:nonzero;stroke:none"
             id="path15408"
             inkscape:connector-curvature="0" />
        </g>
        <g
           id="g15410"
           transform="translate(121.8281,101.1824)">
          <path
             d="M 0,0 C 0.117,0 0.21,0.117 0.21,0.233 0.21,0.35 0.117,0.466 0,0.466 -0.117,0.466 -0.21,0.35 -0.21,0.233 -0.21,0.117 -0.117,0 0,0"
             style="fill:#f39200;fill-opacity:1;fill-rule:nonzero;stroke:none"
             id="path15412"
             inkscape:connector-curvature="0" />
        </g>
        <g
           id="g15414"
           transform="translate(121.7581,97.2672)">
          <path
             d="M 0,0 C 0.233,0 0.419,0.186 0.419,0.443 0.419,0.676 0.233,0.862 0,0.862 -0.233,0.862 -0.419,0.676 -0.419,0.443 -0.419,0.186 -0.233,0 0,0"
             style="fill:#f39200;fill-opacity:1;fill-rule:nonzero;stroke:none"
             id="path15416"
             inkscape:connector-curvature="0" />
        </g>
        <g
           id="g15418"
           transform="translate(120.3364,93.142)">
          <path
             d="m 0,0 c -0.35,0 -0.676,-0.256 -0.792,-0.583 -0.024,-0.093 -0.047,-0.186 -0.047,-0.303 0,-0.093 0.023,-0.186 0.047,-0.279 0.116,-0.35 0.442,-0.606 0.792,-0.606 0.396,0 0.699,0.279 0.792,0.652 0.024,0.094 0.047,0.163 0.047,0.233 0,0.094 -0.023,0.164 -0.047,0.233 C 0.699,-0.28 0.396,0 0,0"
             style="fill:#f39200;fill-opacity:1;fill-rule:nonzero;stroke:none"
             id="path15420"
             inkscape:connector-curvature="0" />
        </g>
        <g
           id="g15422"
           transform="translate(120.0102,99.5977)">
          <path
             d="m 0,0 c 0,-0.186 0.14,-0.326 0.303,-0.326 0.163,0 0.303,0.14 0.303,0.326 0,0.163 -0.14,0.303 -0.303,0.303 C 0.14,0.303 0,0.163 0,0"
             style="fill:#f39200;fill-opacity:1;fill-rule:nonzero;stroke:none"
             id="path15424"
             inkscape:connector-curvature="0" />
        </g>
        <g
           id="g15426"
           transform="translate(120.3598,94.9366)">
          <path
             d="m 0,0 c 0.35,0 0.652,0.326 0.652,0.722 0,0.373 -0.302,0.7 -0.652,0.7 -0.373,0 -0.676,-0.327 -0.676,-0.7 C -0.676,0.326 -0.373,0 0,0"
             style="fill:#f39200;fill-opacity:1;fill-rule:nonzero;stroke:none"
             id="path15428"
             inkscape:connector-curvature="0" />
        </g>
        <g
           id="g15430"
           transform="translate(120.1967,102.8604)">
          <path
             d="M 0,0 C 0.116,0 0.21,0.093 0.21,0.21 0.21,0.326 0.116,0.42 0,0.42 -0.117,0.42 -0.21,0.326 -0.21,0.21 -0.21,0.093 -0.117,0 0,0"
             style="fill:#f39200;fill-opacity:1;fill-rule:nonzero;stroke:none"
             id="path15432"
             inkscape:connector-curvature="0" />
        </g>
        <g
           id="g15434"
           transform="translate(118.8915,93.0722)">
          <path
             d="m 0,0 c 0.303,0 0.559,0.186 0.653,0.489 0.046,0.07 0.046,0.164 0.046,0.257 0,0.093 0,0.186 -0.046,0.256 C 0.559,1.282 0.303,1.492 0,1.492 -0.396,1.492 -0.699,1.165 -0.699,0.746 -0.699,0.326 -0.396,0 0,0"
             style="fill:#f39200;fill-opacity:1;fill-rule:nonzero;stroke:none"
             id="path15436"
             inkscape:connector-curvature="0" />
        </g>
        <g
           id="g15438"
           transform="translate(118.3116,89.2081)">
          <path
             d="m 0,0 c 0.162,-0.107 0.439,-0.232 0.603,-0.191 0.11,0 0.48,0.06 0.583,0.093 0.07,0.107 0.03,0.076 0.162,0.164 C 1.418,0.108 1.379,0.238 1.46,0.273 1.595,0.461 1.675,0.698 1.675,0.951 1.675,1.3 1.512,1.65 1.232,1.86 1.069,1.999 0.836,2.093 0.603,2.093 -0.003,2.093 -0.492,1.58 -0.492,0.951 -0.465,0.686 -0.327,0.379 -0.184,0.18 -0.065,0.099 -0.091,0.127 0,0"
             style="fill:#f39200;fill-opacity:1;fill-rule:nonzero;stroke:none"
             id="path15440"
             inkscape:connector-curvature="0" />
        </g>
        <g
           id="g15442"
           transform="translate(118.8683,101.2524)">
          <path
             d="M 0,0 C 0.116,0 0.21,0.093 0.21,0.21 0.21,0.326 0.116,0.443 0,0.443 -0.093,0.443 -0.187,0.326 -0.187,0.21 -0.187,0.093 -0.093,0 0,0"
             style="fill:#f39200;fill-opacity:1;fill-rule:nonzero;stroke:none"
             id="path15444"
             inkscape:connector-curvature="0" />
        </g>
        <g
           id="g15446"
           transform="translate(117.5631,102.8604)">
          <path
             d="M 0,0 C 0.116,0 0.21,0.117 0.21,0.233 0.21,0.35 0.116,0.443 0,0.443 -0.093,0.443 -0.21,0.35 -0.21,0.233 -0.21,0.117 -0.093,0 0,0"
             style="fill:#f39200;fill-opacity:1;fill-rule:nonzero;stroke:none"
             id="path15448"
             inkscape:connector-curvature="0" />
        </g>
        <g
           id="g15450"
           transform="translate(117.4932,99.1315)">
          <path
             d="M 0,0 C 0.186,0 0.349,0.163 0.349,0.373 0.349,0.559 0.186,0.722 0,0.722 -0.163,0.722 -0.326,0.559 -0.326,0.373 -0.326,0.163 -0.163,0 0,0"
             style="fill:#f39200;fill-opacity:1;fill-rule:nonzero;stroke:none"
             id="path15452"
             inkscape:connector-curvature="0" />
        </g>
        <g
           id="g15454"
           transform="translate(118.9149,97.1041)">
          <path
             d="m 0,0 c 0.233,0 0.443,0.233 0.443,0.489 0,0.28 -0.21,0.49 -0.443,0.49 -0.256,0 -0.466,-0.21 -0.466,-0.49 C -0.466,0.233 -0.256,0 0,0"
             style="fill:#f39200;fill-opacity:1;fill-rule:nonzero;stroke:none"
             id="path15456"
             inkscape:connector-curvature="0" />
        </g>
        <g
           id="g15458"
           transform="translate(117.4698,94.9599)">
          <path
             d="M 0,0 C 0.326,0 0.583,0.28 0.583,0.629 0.583,0.955 0.326,1.235 0,1.235 -0.303,1.235 -0.583,0.955 -0.583,0.629 -0.583,0.28 -0.303,0 0,0"
             style="fill:#f39200;fill-opacity:1;fill-rule:nonzero;stroke:none"
             id="path15460"
             inkscape:connector-curvature="0" />
        </g>
        <g
           id="g15462"
           transform="translate(117.5631,91.3475)">
          <path
             d="M 0,0 C 0.419,0 0.792,0.373 0.792,0.839 0.792,1.305 0.419,1.701 0,1.701 -0.443,1.701 -0.792,1.305 -0.792,0.839 -0.792,0.373 -0.443,0 0,0"
             style="fill:#f39200;fill-opacity:1;fill-rule:nonzero;stroke:none"
             id="path15464"
             inkscape:connector-curvature="0" />
        </g>
        <g
           id="g15466"
           transform="translate(115.9783,101.0659)">
          <path
             d="M 0,0 C 0.163,0 0.303,0.163 0.303,0.326 0.303,0.513 0.163,0.653 0,0.653 -0.187,0.653 -0.326,0.513 -0.326,0.326 -0.326,0.163 -0.187,0 0,0"
             style="fill:#f39200;fill-opacity:1;fill-rule:nonzero;stroke:none"
             id="path15468"
             inkscape:connector-curvature="0" />
        </g>
        <g
           id="g15470"
           transform="translate(115.9783,97.1739)">
          <path
             d="m 0,0 0.047,0 c 0.256,0 0.466,0.21 0.466,0.49 0,0.256 -0.21,0.466 -0.466,0.466 L 0,0.956 C -0.233,0.932 -0.396,0.722 -0.396,0.49 -0.396,0.233 -0.233,0.023 0,0"
             style="fill:#f39200;fill-opacity:1;fill-rule:nonzero;stroke:none"
             id="path15472"
             inkscape:connector-curvature="0" />
        </g>
        <g
           id="g15474"
           transform="translate(115.9783,93.0722)">
          <path
             d="m 0,0 0.07,0 c 0.373,0 0.676,0.326 0.676,0.722 0,0.397 -0.303,0.7 -0.676,0.7 L 0,1.422 C -0.326,1.375 -0.606,1.072 -0.606,0.722 -0.606,0.35 -0.326,0.047 0,0"
             style="fill:#f39200;fill-opacity:1;fill-rule:nonzero;stroke:none"
             id="path15476"
             inkscape:connector-curvature="0" />
        </g>
        <g
           id="g15478"
           transform="translate(114.3935,91.0213)">
          <path
             d="m 0,0 c 0.28,0 0.536,0.14 0.676,0.373 0.093,0.14 0.163,0.326 0.163,0.513 0,0.209 -0.07,0.396 -0.163,0.536 C 0.536,1.631 0.28,1.794 0,1.794 -0.443,1.794 -0.816,1.375 -0.816,0.886 -0.816,0.419 -0.443,0 0,0"
             style="fill:#f39200;fill-opacity:1;fill-rule:nonzero;stroke:none"
             id="path15480"
             inkscape:connector-curvature="0" />
        </g>
        <g
           id="g15482"
           transform="translate(114.4401,102.8604)">
          <path
             d="M 0,0 C 0.093,0 0.163,0.07 0.163,0.163 0.163,0.256 0.093,0.35 0,0.35 -0.07,0.35 -0.14,0.256 -0.14,0.163 -0.14,0.07 -0.07,0 0,0"
             style="fill:#f39200;fill-opacity:1;fill-rule:nonzero;stroke:none"
             id="path15484"
             inkscape:connector-curvature="0" />
        </g>
        <g
           id="g15486"
           transform="translate(114.3703,99.2714)">
          <path
             d="M 0,0 C 0.186,0 0.326,0.163 0.326,0.373 0.326,0.559 0.186,0.722 0,0.722 -0.187,0.722 -0.326,0.559 -0.326,0.373 -0.326,0.163 -0.187,0 0,0"
             style="fill:#f39200;fill-opacity:1;fill-rule:nonzero;stroke:none"
             id="path15488"
             inkscape:connector-curvature="0" />
        </g>
        <g
           id="g15490"
           transform="translate(114.3703,95.123)">
          <path
             d="M 0,0 C 0.303,0 0.536,0.256 0.536,0.583 0.536,0.909 0.303,1.165 0,1.165 -0.303,1.165 -0.536,0.909 -0.536,0.583 -0.536,0.256 -0.303,0 0,0"
             style="fill:#f39200;fill-opacity:1;fill-rule:nonzero;stroke:none"
             id="path15492"
             inkscape:connector-curvature="0" />
        </g>
        <g
           id="g15494"
           transform="translate(112.8087,101.1592)">
          <path
             d="M 0,0 C 0.047,0 0.07,0.023 0.093,0.023 0.163,0.07 0.21,0.14 0.21,0.233 0.21,0.326 0.163,0.396 0.093,0.419 0.07,0.443 0.047,0.443 0,0.443 -0.116,0.443 -0.21,0.35 -0.21,0.233 -0.21,0.117 -0.116,0 0,0"
             style="fill:#f39200;fill-opacity:1;fill-rule:nonzero;stroke:none"
             id="path15496"
             inkscape:connector-curvature="0" />
        </g>
        <g
           id="g15498"
           transform="translate(112.8786,97.1273)">
          <path
             d="m 0,0 0.023,0 c 0.21,0 0.373,0.186 0.373,0.396 0,0.21 -0.163,0.373 -0.373,0.396 L 0,0.792 C -0.186,0.792 -0.373,0.606 -0.373,0.396 -0.373,0.163 -0.186,0 0,0"
             style="fill:#f39200;fill-opacity:1;fill-rule:nonzero;stroke:none"
             id="path15500"
             inkscape:connector-curvature="0" />
        </g>
        <g
           id="g15502"
           transform="translate(112.8321,93.2119)">
          <path
             d="m 0,0 0.07,0 c 0.349,0.047 0.606,0.35 0.606,0.723 0,0.372 -0.257,0.675 -0.606,0.722 L 0,1.445 C -0.373,1.445 -0.653,1.119 -0.653,0.723 -0.653,0.326 -0.373,0 0,0"
             style="fill:#f39200;fill-opacity:1;fill-rule:nonzero;stroke:none"
             id="path15504"
             inkscape:connector-curvature="0" />
        </g>
        <g
           id="g15506"
           transform="translate(112.1095,90.4386)">
          <path
             d="m 0,0 c -0.07,-0.14 -0.093,-0.303 -0.093,-0.466 0,-0.163 0.023,-0.303 0.093,-0.443 0.163,-0.326 0.443,-0.536 0.792,-0.536 0.513,0 0.933,0.443 0.933,0.979 0,0.559 -0.42,1.002 -0.933,1.002 C 0.443,0.536 0.163,0.303 0,0"
             style="fill:#f39200;fill-opacity:1;fill-rule:nonzero;stroke:none"
             id="path15508"
             inkscape:connector-curvature="0" />
        </g>
        <g
           id="g15510"
           transform="translate(111.3871,90.9513)">
          <path
             d="m 0,0 c 0.303,0 0.583,0.163 0.722,0.443 0.07,0.14 0.117,0.279 0.117,0.443 0,0.163 -0.047,0.303 -0.117,0.419 C 0.583,1.585 0.303,1.771 0,1.771 -0.466,1.771 -0.839,1.375 -0.839,0.886 -0.839,0.396 -0.466,0 0,0"
             style="fill:#f39200;fill-opacity:1;fill-rule:nonzero;stroke:none"
             id="path15512"
             inkscape:connector-curvature="0" />
        </g>
        <g
           id="g15514"
           transform="translate(109.709,90.8814)">
          <path
             d="m 0,0 c -0.28,0 -0.513,-0.14 -0.676,-0.35 -0.14,-0.163 -0.21,-0.372 -0.21,-0.606 0,-0.209 0.07,-0.419 0.21,-0.582 0.163,-0.21 0.396,-0.35 0.676,-0.35 0.489,0 0.886,0.42 0.886,0.932 C 0.886,-0.443 0.489,0 0,0"
             style="fill:#f39200;fill-opacity:1;fill-rule:nonzero;stroke:none"
             id="path15516"
             inkscape:connector-curvature="0" />
        </g>
        <g
           id="g15518"
           transform="translate(111.3172,99.3413)">
          <path
             d="M 0,0 C 0.116,0 0.21,0.093 0.21,0.21 0.21,0.326 0.116,0.443 0,0.443 -0.116,0.443 -0.21,0.326 -0.21,0.21 -0.21,0.093 -0.116,0 0,0"
             style="fill:#f39200;fill-opacity:1;fill-rule:nonzero;stroke:none"
             id="path15520"
             inkscape:connector-curvature="0" />
        </g>
        <g
           id="g15522"
           transform="translate(111.3405,94.9832)">
          <path
             d="M 0,0 C 0.373,0 0.653,0.303 0.653,0.699 0.653,1.072 0.373,1.398 0,1.398 -0.35,1.398 -0.652,1.072 -0.652,0.699 -0.652,0.303 -0.35,0 0,0"
             style="fill:#f39200;fill-opacity:1;fill-rule:nonzero;stroke:none"
             id="path15524"
             inkscape:connector-curvature="0" />
        </g>
        <g
           id="g15526"
           transform="translate(109.709,100.8796)">
          <path
             d="m 0,0 0.07,0 c 0.07,0 0.14,0.07 0.14,0.163 0,0.093 -0.07,0.163 -0.14,0.163 L 0,0.326 C -0.047,0.303 -0.093,0.233 -0.093,0.163 -0.093,0.093 -0.047,0.023 0,0"
             style="fill:#f39200;fill-opacity:1;fill-rule:nonzero;stroke:none"
             id="path15528"
             inkscape:connector-curvature="0" />
        </g>
        <g
           id="g15530"
           transform="translate(109.709,97.2438)">
          <path
             d="M 0,0 0.07,0 C 0.256,0 0.396,0.163 0.396,0.35 0.396,0.559 0.256,0.723 0.07,0.723 0.047,0.723 0.023,0.699 0,0.699 -0.163,0.676 -0.28,0.536 -0.28,0.35 -0.28,0.163 -0.163,0.023 0,0"
             style="fill:#f39200;fill-opacity:1;fill-rule:nonzero;stroke:none"
             id="path15532"
             inkscape:connector-curvature="0" />
        </g>
        <g
           id="g15534"
           transform="translate(109.709,93.142)">
          <path
             d="m 0,0 0.093,0 c 0.373,0 0.676,0.326 0.676,0.722 0,0.373 -0.303,0.7 -0.676,0.7 L 0,1.422 C -0.326,1.375 -0.559,1.072 -0.559,0.722 -0.559,0.35 -0.326,0.07 0,0"
             style="fill:#f39200;fill-opacity:1;fill-rule:nonzero;stroke:none"
             id="path15536"
             inkscape:connector-curvature="0" />
        </g>
        <g
           id="g15538"
           transform="translate(109.0332,87.5487)">
          <path
             d="m 0,0 c 0.116,0.186 0.187,0.396 0.187,0.629 0,0.257 -0.071,0.466 -0.187,0.653 -0.186,0.256 -0.489,0.419 -0.816,0.419 -0.349,0 -0.676,-0.186 -0.839,-0.489 -0.116,-0.163 -0.163,-0.35 -0.163,-0.583 0,-0.21 0.047,-0.396 0.163,-0.559 0.163,-0.303 0.49,-0.49 0.839,-0.49 0.176,0 0.342,0.05 0.49,0.134 C -0.238,-0.177 -0.13,-0.081 0,0"
             style="fill:#f39200;fill-opacity:1;fill-rule:nonzero;stroke:none"
             id="path15540"
             inkscape:connector-curvature="0" />
        </g>
        <g
           id="g15542"
           transform="translate(108.2175,99.1782)">
          <path
             d="m 0,0 c 0.023,-0.023 0.047,-0.023 0.07,-0.023 0.093,0 0.163,0.093 0.163,0.186 C 0.233,0.28 0.163,0.35 0.07,0.35 0.047,0.35 0.023,0.35 0,0.326 -0.07,0.303 -0.116,0.233 -0.116,0.163 -0.116,0.093 -0.07,0.023 0,0"
             style="fill:#f39200;fill-opacity:1;fill-rule:nonzero;stroke:none"
             id="path15544"
             inkscape:connector-curvature="0" />
        </g>
        <g
           id="g15546"
           transform="translate(108.2175,95.1697)">
          <path
             d="m 0,0 0.023,0 c 0.303,0 0.513,0.233 0.513,0.536 0,0.303 -0.21,0.559 -0.513,0.559 L 0,1.095 C -0.28,1.072 -0.489,0.839 -0.489,0.536 -0.489,0.256 -0.28,0.023 0,0"
             style="fill:#f39200;fill-opacity:1;fill-rule:nonzero;stroke:none"
             id="path15548"
             inkscape:connector-curvature="0" />
        </g>
        <g
           id="g15550"
           transform="translate(108.2175,91.0213)">
          <path
             d="m 0,0 0.047,0 c 0.349,0 0.652,0.256 0.769,0.629 0,0.07 0.023,0.14 0.023,0.21 0,0.093 -0.023,0.163 -0.023,0.233 -0.117,0.35 -0.42,0.629 -0.769,0.629 L 0,1.701 C -0.419,1.655 -0.746,1.305 -0.746,0.839 -0.746,0.396 -0.419,0.023 0,0"
             style="fill:#f39200;fill-opacity:1;fill-rule:nonzero;stroke:none"
             id="path15552"
             inkscape:connector-curvature="0" />
        </g>
        <g
           id="g15554"
           transform="translate(106.4928,97.2206)">
          <path
             d="M 0,0 C 0.07,0 0.14,0.023 0.186,0.07 0.28,0.14 0.35,0.233 0.35,0.35 0.35,0.489 0.28,0.583 0.186,0.653 0.14,0.699 0.07,0.722 0,0.722 -0.186,0.722 -0.349,0.559 -0.349,0.35 -0.349,0.163 -0.186,0 0,0"
             style="fill:#f39200;fill-opacity:1;fill-rule:nonzero;stroke:none"
             id="path15556"
             inkscape:connector-curvature="0" />
        </g>
        <g
           id="g15558"
           transform="translate(106.5861,93.1887)">
          <path
             d="M 0,0 0.093,0 C 0.396,0.07 0.629,0.326 0.629,0.653 0.629,0.979 0.396,1.259 0.093,1.305 0.07,1.305 0.047,1.328 0,1.328 -0.326,1.328 -0.606,1.025 -0.606,0.653 -0.606,0.303 -0.326,0 0,0"
             style="fill:#f39200;fill-opacity:1;fill-rule:nonzero;stroke:none"
             id="path15560"
             inkscape:connector-curvature="0" />
        </g>
        <g
           id="g15562"
           transform="translate(106.6793,89.0635)">
          <path
             d="m 0,0 c 0.28,0 0.536,0.14 0.699,0.373 0.094,0.14 0.163,0.326 0.163,0.536 0,0.186 -0.069,0.373 -0.163,0.513 C 0.536,1.655 0.28,1.795 0,1.795 -0.303,1.795 -0.583,1.608 -0.722,1.328 -0.792,1.189 -0.839,1.049 -0.839,0.909 -0.839,0.746 -0.792,0.606 -0.722,0.466 -0.583,0.186 -0.303,0 0,0"
             style="fill:#f39200;fill-opacity:1;fill-rule:nonzero;stroke:none"
             id="path15564"
             inkscape:connector-curvature="0" />
        </g>
        <g
           id="g15566"
           transform="translate(105.1179,99.2482)">
          <path
             d="M 0,0 0.023,0 C 0.117,0 0.21,0.07 0.21,0.186 0.21,0.28 0.117,0.373 0.023,0.373 L 0,0.373 C -0.093,0.349 -0.14,0.28 -0.14,0.186 -0.14,0.093 -0.093,0.023 0,0"
             style="fill:#f39200;fill-opacity:1;fill-rule:nonzero;stroke:none"
             id="path15568"
             inkscape:connector-curvature="0" />
        </g>
        <g
           id="g15570"
           transform="translate(105.0013,95.3095)">
          <path
             d="M 0,0 0.117,0 C 0.28,0.07 0.419,0.233 0.419,0.443 0.419,0.652 0.28,0.816 0.117,0.886 L 0,0.886 C -0.256,0.886 -0.443,0.699 -0.443,0.443 -0.443,0.186 -0.256,0 0,0"
             style="fill:#f39200;fill-opacity:1;fill-rule:nonzero;stroke:none"
             id="path15572"
             inkscape:connector-curvature="0" />
        </g>
        <g
           id="g15574"
           transform="translate(105.1179,91.2776)">
          <path
             d="m 0,0 0.023,0 c 0.373,0 0.653,0.303 0.653,0.699 0,0.373 -0.28,0.699 -0.653,0.699 L 0,1.398 C -0.35,1.375 -0.629,1.072 -0.629,0.699 -0.629,0.326 -0.35,0.023 0,0"
             style="fill:#f39200;fill-opacity:1;fill-rule:nonzero;stroke:none"
             id="path15576"
             inkscape:connector-curvature="0" />
        </g>
        <g
           id="g15578"
           transform="translate(104.1624,88.2478)">
          <path
             d="m 0,0 c 0,-0.186 0.047,-0.349 0.116,-0.489 0.164,-0.303 0.467,-0.513 0.84,-0.513 0.349,0 0.675,0.233 0.838,0.559 0.047,0.117 0.094,0.28 0.094,0.443 0,0.163 -0.047,0.326 -0.094,0.443 C 1.631,0.769 1.305,1.002 0.956,1.002 0.583,1.002 0.28,0.792 0.116,0.49 0.047,0.35 0,0.187 0,0"
             style="fill:#f39200;fill-opacity:1;fill-rule:nonzero;stroke:none"
             id="path15580"
             inkscape:connector-curvature="0" />
        </g>
        <g
           id="g15582"
           transform="translate(103.7661,87.4787)">
          <path
             d="m 0,0 -0.186,0 c -0.397,-0.093 -0.723,-0.396 -0.816,-0.816 -0.023,-0.093 -0.047,-0.186 -0.047,-0.279 0,-0.094 0.024,-0.187 0.047,-0.28 0.093,-0.419 0.419,-0.723 0.816,-0.816 l 0.186,0 c 0.186,0 0.373,0.047 0.513,0.14 0.303,0.21 0.512,0.559 0.512,0.956 0,0.396 -0.209,0.769 -0.512,0.955 C 0.373,-0.047 0.186,0 0,0"
             style="fill:#f39200;fill-opacity:1;fill-rule:nonzero;stroke:none"
             id="path15584"
             inkscape:connector-curvature="0" />
        </g>
        <g
           id="g15586"
           transform="translate(103.5796,97.2672)">
          <path
             d="M 0,0 C 0.14,0 0.233,0.116 0.233,0.256 0.233,0.396 0.14,0.513 0,0.513 -0.14,0.513 -0.233,0.396 -0.233,0.256 -0.233,0.116 -0.14,0 0,0"
             style="fill:#f39200;fill-opacity:1;fill-rule:nonzero;stroke:none"
             id="path15588"
             inkscape:connector-curvature="0" />
        </g>
        <g
           id="g15590"
           transform="translate(103.533,93.2819)">
          <path
             d="m 0,0 0.047,0 c 0.233,0.023 0.419,0.233 0.419,0.489 0,0.257 -0.186,0.467 -0.419,0.49 L 0,0.979 c -0.256,0 -0.466,-0.21 -0.466,-0.49 C -0.466,0.21 -0.256,0 0,0"
             style="fill:#f39200;fill-opacity:1;fill-rule:nonzero;stroke:none"
             id="path15592"
             inkscape:connector-curvature="0" />
        </g>
        <g
           id="g15594"
           transform="translate(103.5796,89.0869)">
          <path
             d="m 0,0 c 0.303,0 0.559,0.163 0.699,0.419 0.093,0.14 0.117,0.28 0.117,0.467 0,0.163 -0.024,0.303 -0.117,0.442 -0.14,0.257 -0.396,0.42 -0.699,0.42 -0.443,0 -0.792,-0.35 -0.816,-0.816 l 0,-0.116 C -0.792,0.35 -0.443,0 0,0"
             style="fill:#f39200;fill-opacity:1;fill-rule:nonzero;stroke:none"
             id="path15596"
             inkscape:connector-curvature="0" />
        </g>
        <g
           id="g15598"
           transform="translate(101.692,95.7056)">
          <path
             d="m 0,0 c 0,-0.186 0.117,-0.303 0.28,-0.303 l 0.046,0 c 0.117,0.023 0.233,0.14 0.233,0.303 0,0.14 -0.116,0.256 -0.233,0.28 l -0.046,0 C 0.117,0.28 0,0.163 0,0"
             style="fill:#f39200;fill-opacity:1;fill-rule:nonzero;stroke:none"
             id="path15600"
             inkscape:connector-curvature="0" />
        </g>
        <g
           id="g15602"
           transform="translate(101.9018,91.2076)">
          <path
             d="m 0,0 0.116,0 c 0.28,0.047 0.513,0.326 0.513,0.653 0,0.349 -0.233,0.606 -0.513,0.675 L 0,1.328 c -0.28,0 -0.513,-0.186 -0.583,-0.442 -0.023,-0.07 -0.046,-0.14 -0.046,-0.233 0,-0.07 0.023,-0.14 0.046,-0.21 C -0.513,0.187 -0.28,0 0,0"
             style="fill:#f39200;fill-opacity:1;fill-rule:nonzero;stroke:none"
             id="path15604"
             inkscape:connector-curvature="0" />
        </g>
        <g
           id="g15606"
           transform="translate(102.0182,87.3156)">
          <path
             d="m 0,0 c 0.35,0 0.629,0.233 0.746,0.583 0.023,0.07 0.023,0.163 0.023,0.256 0,0.07 0,0.163 -0.023,0.233 C 0.629,1.422 0.35,1.655 0,1.655 c -0.303,0 -0.583,-0.187 -0.699,-0.443 -0.07,-0.117 -0.093,-0.233 -0.093,-0.373 0,-0.14 0.023,-0.28 0.093,-0.396 C -0.583,0.186 -0.303,0 0,0"
             style="fill:#f39200;fill-opacity:1;fill-rule:nonzero;stroke:none"
             id="path15608"
             inkscape:connector-curvature="0" />
        </g>
        <g
           id="g15610"
           transform="translate(101.7851,97.5235)">
          <path
             d="M 0,0 C 0.093,0 0.163,0.07 0.163,0.163 0.163,0.256 0.093,0.326 0,0.326 -0.093,0.326 -0.163,0.256 -0.163,0.163 -0.163,0.07 -0.093,0 0,0"
             style="fill:#f39200;fill-opacity:1;fill-rule:nonzero;stroke:none"
             id="path15612"
             inkscape:connector-curvature="0" />
        </g>
        <g
           id="g15614"
           transform="translate(100.4801,87.4089)">
          <path
             d="m 0,0 -0.047,0 c -0.372,0 -0.699,-0.233 -0.862,-0.583 -0.07,-0.139 -0.093,-0.279 -0.093,-0.442 0,-0.164 0.023,-0.327 0.093,-0.467 0.163,-0.326 0.49,-0.559 0.862,-0.559 l 0.047,0 c 0.373,0.023 0.676,0.256 0.839,0.606 0.047,0.117 0.07,0.256 0.07,0.42 0,0.139 -0.023,0.279 -0.07,0.419 C 0.676,-0.256 0.373,-0.023 0,0"
             style="fill:#f39200;fill-opacity:1;fill-rule:nonzero;stroke:none"
             id="path15616"
             inkscape:connector-curvature="0" />
        </g>
        <g
           id="g15618"
           transform="translate(100.4801,93.2819)">
          <path
             d="m 0,0 0.023,0 c 0.233,0 0.42,0.21 0.42,0.443 0,0.256 -0.187,0.466 -0.42,0.466 L 0,0.909 C -0.233,0.886 -0.419,0.699 -0.419,0.443 -0.419,0.21 -0.233,0 0,0"
             style="fill:#f39200;fill-opacity:1;fill-rule:nonzero;stroke:none"
             id="path15620"
             inkscape:connector-curvature="0" />
        </g>
        <g
           id="g15622"
           transform="translate(100.4801,89.2966)">
          <path
             d="m 0,0 c 0.373,0 0.676,0.326 0.676,0.722 0,0.397 -0.303,0.7 -0.676,0.7 -0.373,0 -0.676,-0.303 -0.676,-0.7 C -0.676,0.326 -0.373,0 0,0"
             style="fill:#f39200;fill-opacity:1;fill-rule:nonzero;stroke:none"
             id="path15624"
             inkscape:connector-curvature="0" />
        </g>
        <g
           id="g15626"
           transform="translate(98.8487,95.4026)">
          <path
             d="m 0,0 c 0.023,0 0.047,0 0.07,0.023 0.093,0.024 0.163,0.117 0.163,0.233 0,0.094 -0.07,0.21 -0.163,0.233 L 0,0.489 C -0.14,0.489 -0.233,0.396 -0.233,0.256 -0.233,0.117 -0.14,0 0,0"
             style="fill:#f39200;fill-opacity:1;fill-rule:nonzero;stroke:none"
             id="path15628"
             inkscape:connector-curvature="0" />
        </g>
        <g
           id="g15630"
           transform="translate(98.8953,91.2776)">
          <path
             d="M 0,0 0.023,0 C 0.28,0 0.489,0.233 0.489,0.513 0.489,0.816 0.28,1.049 0.023,1.049 L 0,1.049 C -0.28,1.049 -0.49,0.816 -0.49,0.513 -0.49,0.233 -0.28,0 0,0"
             style="fill:#f39200;fill-opacity:1;fill-rule:nonzero;stroke:none"
             id="path15632"
             inkscape:connector-curvature="0" />
        </g>
        <g
           id="g15634"
           transform="translate(98.9185,87.1525)">
          <path
             d="m 0,0 c 0.28,0 0.536,0.163 0.653,0.396 0.069,0.117 0.116,0.257 0.116,0.396 0,0.164 -0.047,0.28 -0.116,0.42 C 0.536,1.445 0.28,1.608 0,1.608 -0.419,1.608 -0.769,1.235 -0.769,0.792 -0.769,0.35 -0.419,0 0,0"
             style="fill:#f39200;fill-opacity:1;fill-rule:nonzero;stroke:none"
             id="path15636"
             inkscape:connector-curvature="0" />
        </g>
        <g
           id="g15638"
           transform="translate(97.2173,93.4682)">
          <path
             d="m 0,0 0.116,0 c 0.21,0 0.327,0.14 0.303,0.326 0,0.187 -0.139,0.327 -0.303,0.327 L 0,0.653 C -0.116,0.606 -0.21,0.466 -0.21,0.326 -0.21,0.187 -0.14,0.047 0,0"
             style="fill:#f39200;fill-opacity:1;fill-rule:nonzero;stroke:none"
             id="path15640"
             inkscape:connector-curvature="0" />
        </g>
        <g
           id="g15642"
           transform="translate(97.2173,89.4597)">
          <path
             d="m 0,0 c 0.07,-0.023 0.14,-0.047 0.21,-0.047 0.303,0 0.559,0.257 0.559,0.583 0,0.326 -0.256,0.606 -0.559,0.606 C 0.14,1.142 0.07,1.119 0,1.095 -0.21,1.002 -0.35,0.792 -0.35,0.536 -0.35,0.303 -0.21,0.07 0,0"
             style="fill:#f39200;fill-opacity:1;fill-rule:nonzero;stroke:none"
             id="path15644"
             inkscape:connector-curvature="0" />
        </g>
        <g
           id="g15646"
           transform="translate(96.7278,85.5677)">
          <path
             d="m 0,0 c 0.14,-0.116 0.303,-0.21 0.489,-0.21 0.443,0 0.793,0.373 0.793,0.839 0,0.443 -0.35,0.816 -0.793,0.816 C 0.303,1.445 0.14,1.375 0,1.259 -0.163,1.119 -0.28,0.886 -0.28,0.629 -0.28,0.373 -0.163,0.14 0,0"
             style="fill:#f39200;fill-opacity:1;fill-rule:nonzero;stroke:none"
             id="path15648"
             inkscape:connector-curvature="0" />
        </g>
        <g
           id="g15650"
           transform="translate(95.8422,91.6737)">
          <path
             d="M 0,0 C 0.047,0 0.116,0.023 0.163,0.047 0.28,0.117 0.35,0.233 0.35,0.396 0.35,0.536 0.28,0.653 0.163,0.723 0.116,0.746 0.047,0.769 0,0.769 -0.21,0.769 -0.373,0.606 -0.373,0.396 -0.373,0.186 -0.21,0 0,0"
             style="fill:#f39200;fill-opacity:1;fill-rule:nonzero;stroke:none"
             id="path15652"
             inkscape:connector-curvature="0" />
        </g>
        <g
           id="g15654"
           transform="translate(95.819,87.3156)">
          <path
             d="m 0,0 c 0.07,0 0.117,0.023 0.186,0.023 0.257,0.093 0.443,0.35 0.443,0.653 0,0.303 -0.186,0.559 -0.443,0.652 C 0.117,1.328 0.07,1.352 0,1.352 -0.35,1.352 -0.629,1.049 -0.629,0.676 -0.629,0.303 -0.35,0 0,0"
             style="fill:#f39200;fill-opacity:1;fill-rule:nonzero;stroke:none"
             id="path15656"
             inkscape:connector-curvature="0" />
        </g>
        <g
           id="g15658"
           transform="translate(96.0053,83.3071)">
          <path
             d="m 0,0 c 0.28,0 0.536,0.117 0.722,0.326 0.164,0.187 0.28,0.443 0.28,0.723 0,0.303 -0.116,0.559 -0.28,0.746 C 0.536,2.004 0.28,2.121 0,2.121 -0.559,2.121 -1.002,1.655 -1.002,1.049 -1.002,0.466 -0.559,0 0,0"
             style="fill:#f39200;fill-opacity:1;fill-rule:nonzero;stroke:none"
             id="path15660"
             inkscape:connector-curvature="0" />
        </g>
        <g
           id="g15662"
           transform="translate(94.2342,93.3752)">
          <path
             d="m 0,0 0.023,0 c 0.093,0 0.163,0.07 0.163,0.163 0,0.093 -0.07,0.163 -0.163,0.163 L 0,0.326 c -0.07,0 -0.14,-0.07 -0.14,-0.163 C -0.14,0.07 -0.07,0 0,0"
             style="fill:#f39200;fill-opacity:1;fill-rule:nonzero;stroke:none"
             id="path15664"
             inkscape:connector-curvature="0" />
        </g>
        <g
           id="g15666"
           transform="translate(94.2342,89.4365)">
          <path
             d="m 0,0 0.023,0 c 0.28,0 0.49,0.233 0.49,0.513 0,0.279 -0.21,0.512 -0.49,0.512 L 0,1.002 C -0.256,1.002 -0.443,0.769 -0.443,0.513 -0.443,0.233 -0.256,0.023 0,0"
             style="fill:#f39200;fill-opacity:1;fill-rule:nonzero;stroke:none"
             id="path15668"
             inkscape:connector-curvature="0" />
        </g>
        <g
           id="g15670"
           transform="translate(94.2342,85.3812)">
          <path
             d="M 0,0 C 0.373,0 0.676,0.303 0.676,0.699 0.676,1.095 0.373,1.422 0,1.422 -0.373,1.422 -0.653,1.095 -0.653,0.699 -0.653,0.303 -0.373,0 0,0"
             style="fill:#f39200;fill-opacity:1;fill-rule:nonzero;stroke:none"
             id="path15672"
             inkscape:connector-curvature="0" />
        </g>
        <g
           id="g15674"
           transform="translate(92.6028,91.5573)">
          <path
             d="m 0,0 c 0.047,-0.023 0.07,-0.047 0.116,-0.047 0.14,0 0.257,0.117 0.257,0.28 0,0.14 -0.117,0.256 -0.257,0.256 C 0.07,0.489 0.047,0.466 0,0.466 -0.07,0.419 -0.14,0.326 -0.14,0.233 -0.14,0.116 -0.07,0.023 0,0"
             style="fill:#f39200;fill-opacity:1;fill-rule:nonzero;stroke:none"
             id="path15676"
             inkscape:connector-curvature="0" />
        </g>
        <g
           id="g15678"
           transform="translate(92.6028,87.4787)">
          <path
             d="m 0,0 0.093,0 c 0.28,0 0.49,0.21 0.49,0.489 0,0.28 -0.21,0.513 -0.49,0.513 L 0,1.002 C -0.21,0.956 -0.373,0.746 -0.373,0.489 -0.373,0.256 -0.21,0.047 0,0"
             style="fill:#f39200;fill-opacity:1;fill-rule:nonzero;stroke:none"
             id="path15680"
             inkscape:connector-curvature="0" />
        </g>
        <g
           id="g15682"
           transform="translate(92.6028,83.4468)">
          <path
             d="M 0,0 C 0.443,0 0.792,0.373 0.792,0.839 0.792,1.305 0.443,1.701 0,1.701 -0.443,1.701 -0.793,1.305 -0.793,0.839 -0.793,0.373 -0.443,0 0,0"
             style="fill:#f39200;fill-opacity:1;fill-rule:nonzero;stroke:none"
             id="path15684"
             inkscape:connector-curvature="0" />
        </g>
        <g
           id="g15686"
           transform="translate(91.0646,89.7395)">
          <path
             d="M 0,0 C 0.14,0 0.256,0.116 0.256,0.28 0.256,0.419 0.14,0.536 0,0.536 -0.14,0.536 -0.233,0.419 -0.233,0.28 -0.233,0.116 -0.14,0 0,0"
             style="fill:#f39200;fill-opacity:1;fill-rule:nonzero;stroke:none"
             id="path15688"
             inkscape:connector-curvature="0" />
        </g>
        <g
           id="g15690"
           transform="translate(91.0646,85.4279)">
          <path
             d="m 0,0 c 0.046,-0.023 0.093,-0.023 0.14,-0.023 0.279,0 0.536,0.256 0.536,0.582 0,0.303 -0.257,0.583 -0.536,0.583 C 0.093,1.142 0.046,1.119 0,1.119 -0.233,1.049 -0.42,0.816 -0.42,0.559 -0.42,0.28 -0.233,0.047 0,0"
             style="fill:#f39200;fill-opacity:1;fill-rule:nonzero;stroke:none"
             id="path15692"
             inkscape:connector-curvature="0" />
        </g>
        <g
           id="g15694"
           transform="translate(91.0646,81.3959)">
          <path
             d="M 0,0 C 0.466,0 0.839,0.396 0.839,0.909 0.839,1.398 0.466,1.795 0,1.795 -0.466,1.795 -0.839,1.398 -0.839,0.909 -0.839,0.396 -0.466,0 0,0"
             style="fill:#f39200;fill-opacity:1;fill-rule:nonzero;stroke:none"
             id="path15696"
             inkscape:connector-curvature="0" />
        </g>
        <g
           id="g15698"
           transform="translate(89.5729,87.6186)">
          <path
             d="m 0,0 0.023,0 c 0.187,0 0.35,0.186 0.35,0.373 0,0.21 -0.163,0.396 -0.35,0.396 L 0,0.769 C -0.186,0.769 -0.349,0.583 -0.349,0.373 -0.349,0.163 -0.186,0 0,0"
             style="fill:#f39200;fill-opacity:1;fill-rule:nonzero;stroke:none"
             id="path15700"
             inkscape:connector-curvature="0" />
        </g>
        <g
           id="g15702"
           transform="translate(89.5963,83.6101)">
          <path
             d="M 0,0 C 0.28,0 0.513,0.256 0.513,0.559 0.513,0.862 0.28,1.118 0,1.118 -0.303,1.118 -0.536,0.862 -0.536,0.559 -0.536,0.256 -0.303,0 0,0"
             style="fill:#f39200;fill-opacity:1;fill-rule:nonzero;stroke:none"
             id="path15704"
             inkscape:connector-curvature="0" />
        </g>
        <g
           id="g15706"
           transform="translate(87.9183,85.591)">
          <path
             d="m 0,0 c 0.047,-0.023 0.07,-0.023 0.116,-0.023 0.257,0 0.443,0.233 0.443,0.489 0,0.28 -0.186,0.49 -0.443,0.49 L 0,0.956 C -0.187,0.909 -0.35,0.699 -0.35,0.466 -0.35,0.233 -0.187,0.047 0,0"
             style="fill:#f39200;fill-opacity:1;fill-rule:nonzero;stroke:none"
             id="path15708"
             inkscape:connector-curvature="0" />
        </g>
        <g
           id="g15710"
           transform="translate(87.9183,81.6523)">
          <path
             d="M 0,0 C 0.326,0 0.583,0.28 0.583,0.606 0.583,0.932 0.326,1.212 0,1.212 -0.303,1.212 -0.559,0.932 -0.559,0.606 -0.559,0.28 -0.303,0 0,0"
             style="fill:#f39200;fill-opacity:1;fill-rule:nonzero;stroke:none"
             id="path15712"
             inkscape:connector-curvature="0" />
        </g>
        <g
           id="g15714"
           transform="translate(86.8696,87.4787)">
          <path
             d="M 0,0 C 0.093,0 0.186,0.093 0.186,0.186 0.186,0.303 0.093,0.373 0,0.373 -0.093,0.373 -0.163,0.303 -0.163,0.186 -0.163,0.093 -0.093,0 0,0"
             style="fill:#f39200;fill-opacity:1;fill-rule:nonzero;stroke:none"
             id="path15716"
             inkscape:connector-curvature="0" />
        </g>
        <g
           id="g15718"
           transform="translate(86.3801,83.7266)">
          <path
             d="m 0,0 c 0.023,0 0.07,-0.023 0.116,-0.023 0.164,0 0.303,0.093 0.373,0.21 0.047,0.093 0.094,0.186 0.094,0.279 0,0.117 -0.047,0.21 -0.094,0.28 -0.07,0.14 -0.209,0.21 -0.373,0.21 L 0,0.956 C -0.21,0.886 -0.35,0.699 -0.35,0.466 -0.35,0.256 -0.21,0.047 0,0"
             style="fill:#f39200;fill-opacity:1;fill-rule:nonzero;stroke:none"
             id="path15720"
             inkscape:connector-curvature="0" />
        </g>
        <g
           id="g15722"
           transform="translate(86.3801,79.8812)">
          <path
             d="m 0,0 c 0.187,0 0.373,0.093 0.489,0.256 0.094,0.117 0.164,0.28 0.164,0.443 0,0.163 -0.07,0.326 -0.164,0.443 C 0.373,1.305 0.187,1.398 0,1.398 -0.35,1.398 -0.653,1.072 -0.653,0.699 -0.653,0.326 -0.35,0 0,0"
             style="fill:#f39200;fill-opacity:1;fill-rule:nonzero;stroke:none"
             id="path15724"
             inkscape:connector-curvature="0" />
        </g>
        <g
           id="g15726"
           transform="translate(85.0517,85.8707)">
          <path
             d="M 0,0 C 0.047,-0.047 0.093,-0.047 0.14,-0.047 0.303,-0.07 0.419,0.07 0.419,0.233 0.419,0.396 0.303,0.536 0.14,0.536 0.093,0.536 0.047,0.513 0,0.489 -0.07,0.443 -0.14,0.35 -0.14,0.233 -0.14,0.14 -0.07,0.047 0,0"
             style="fill:#f39200;fill-opacity:1;fill-rule:nonzero;stroke:none"
             id="path15728"
             inkscape:connector-curvature="0" />
        </g>
        <g
           id="g15730"
           transform="translate(85.0517,81.769)">
          <path
             d="m 0,0 c 0.256,0 0.466,0.233 0.466,0.489 0,0.28 -0.21,0.49 -0.466,0.49 -0.256,0 -0.466,-0.21 -0.466,-0.49 C -0.466,0.233 -0.256,0 0,0"
             style="fill:#f39200;fill-opacity:1;fill-rule:nonzero;stroke:none"
             id="path15732"
             inkscape:connector-curvature="0" />
        </g>
        <g
           id="g15734"
           transform="translate(83.6767,83.8198)">
          <path
             d="m 0,0 c 0.187,0 0.326,0.14 0.326,0.326 0,0.187 -0.139,0.35 -0.303,0.35 -0.139,0 -0.233,-0.07 -0.303,-0.187 -0.023,-0.046 -0.023,-0.093 -0.023,-0.163 0,-0.046 0,-0.116 0.023,-0.163 C -0.21,0.07 -0.116,0 0,0"
             style="fill:#f39200;fill-opacity:1;fill-rule:nonzero;stroke:none"
             id="path15736"
             inkscape:connector-curvature="0" />
        </g>
        <g
           id="g15738"
           transform="translate(83.3971,79.7646)">
          <path
             d="M 0,0 C 0.303,0 0.536,0.233 0.536,0.536 0.536,0.839 0.303,1.095 0,1.095 -0.28,1.095 -0.513,0.839 -0.513,0.536 -0.513,0.233 -0.28,0 0,0"
             style="fill:#f39200;fill-opacity:1;fill-rule:nonzero;stroke:none"
             id="path15740"
             inkscape:connector-curvature="0" />
        </g>
        <g
           id="g15742"
           transform="translate(82.1151,81.8388)">
          <path
             d="m 0,0 c 0.21,0 0.396,0.187 0.396,0.396 0,0.233 -0.163,0.42 -0.373,0.42 -0.14,0 -0.279,-0.07 -0.326,-0.21 -0.046,-0.047 -0.07,-0.116 -0.07,-0.187 0,-0.093 0.024,-0.163 0.07,-0.209 C -0.256,0.093 -0.117,0 0,0"
             style="fill:#f39200;fill-opacity:1;fill-rule:nonzero;stroke:none"
             id="path15744"
             inkscape:connector-curvature="0" />
        </g>
        <g
           id="g15746"
           transform="translate(81.8123,77.8535)">
          <path
             d="M 0,0 C 0.28,0 0.513,0.233 0.513,0.536 0.513,0.839 0.28,1.072 0,1.072 -0.303,1.072 -0.536,0.839 -0.536,0.536 -0.536,0.233 -0.303,0 0,0"
             style="fill:#f39200;fill-opacity:1;fill-rule:nonzero;stroke:none"
             id="path15748"
             inkscape:connector-curvature="0" />
        </g>
        <g
           id="g15750"
           transform="translate(80.6004,79.9044)">
          <path
             d="M 0,0 C 0.186,0 0.35,0.163 0.35,0.373 0.35,0.583 0.186,0.746 0,0.746 -0.14,0.746 -0.233,0.676 -0.303,0.559 -0.326,0.513 -0.35,0.443 -0.35,0.373 c 0,-0.07 0.024,-0.14 0.047,-0.186 C -0.233,0.07 -0.14,0 0,0"
             style="fill:#f39200;fill-opacity:1;fill-rule:nonzero;stroke:none"
             id="path15752"
             inkscape:connector-curvature="0" />
        </g>
        <g
           id="g15754"
           transform="translate(80.2974,75.9426)">
          <path
             d="M 0,0 C 0.28,0 0.513,0.256 0.513,0.536 0.513,0.839 0.28,1.095 0,1.095 -0.28,1.095 -0.513,0.839 -0.513,0.536 -0.513,0.256 -0.28,0 0,0"
             style="fill:#f39200;fill-opacity:1;fill-rule:nonzero;stroke:none"
             id="path15756"
             inkscape:connector-curvature="0" />
        </g>
        <g
           id="g15758"
           transform="translate(79.2689,74.6323)">
          <path
             d="m 0,0 c -0.007,0.263 -0.294,0.521 -0.533,0.541 -0.28,0 -0.513,-0.256 -0.513,-0.559 0,-0.225 0.129,-0.411 0.31,-0.492 0.067,0.046 0.137,0.098 0.203,0.142 C -0.352,-0.242 -0.177,-0.121 0,0"
             style="fill:#f39200;fill-opacity:1;fill-rule:nonzero;stroke:none"
             id="path15760"
             inkscape:connector-curvature="0" />
        </g>
        <g
           id="g15762"
           transform="translate(78.9922,78.0867)">
          <path
             d="m 0,0 c 0.186,0 0.35,0.163 0.35,0.349 0,0.21 -0.164,0.373 -0.35,0.373 -0.093,0 -0.186,-0.023 -0.256,-0.093 -0.047,-0.07 -0.093,-0.163 -0.093,-0.28 0,-0.093 0.046,-0.186 0.093,-0.256 C -0.186,0.023 -0.093,0 0,0"
             style="fill:#f39200;fill-opacity:1;fill-rule:nonzero;stroke:none"
             id="path15764"
             inkscape:connector-curvature="0" />
        </g>
        <g
           id="g15766"
           transform="translate(77.4308,76.1989)">
          <path
             d="M 0,0 C 0.186,0 0.303,0.163 0.303,0.326 0.303,0.513 0.163,0.652 0,0.652 -0.163,0.652 -0.303,0.513 -0.303,0.326 -0.303,0.163 -0.163,0 0,0"
             style="fill:#f39200;fill-opacity:1;fill-rule:nonzero;stroke:none"
             id="path15768"
             inkscape:connector-curvature="0" />
        </g>
        <g
           id="g15770"
           transform="translate(76.0323,74.3111)">
          <path
             d="M 0,0 C 0.163,0 0.28,0.116 0.256,0.28 0.256,0.419 0.14,0.536 0,0.536 -0.14,0.536 -0.256,0.419 -0.256,0.256 -0.256,0.116 -0.14,0 0,0"
             style="fill:#f39200;fill-opacity:1;fill-rule:nonzero;stroke:none"
             id="path15772"
             inkscape:connector-curvature="0" />
        </g>
        <g
           id="g15774"
           transform="translate(74.5176,72.5631)">
          <path
             d="m 0,0 c 0.116,0.023 0.21,0.117 0.21,0.256 0,0.117 -0.094,0.21 -0.21,0.21 l -0.023,0 c -0.117,0 -0.21,-0.093 -0.21,-0.233 C -0.233,0.117 -0.116,0 0,0"
             style="fill:#f39200;fill-opacity:1;fill-rule:nonzero;stroke:none"
             id="path15776"
             inkscape:connector-curvature="0" />
        </g>
        <g
           id="g15778"
           transform="translate(73.1425,70.5588)">
          <path
             d="M 0,0 C 0.093,0 0.163,0.093 0.163,0.186 0.163,0.303 0.093,0.373 0,0.373 -0.093,0.373 -0.186,0.303 -0.186,0.186 -0.186,0.093 -0.093,0 0,0"
             style="fill:#f39200;fill-opacity:1;fill-rule:nonzero;stroke:none"
             id="path15780"
             inkscape:connector-curvature="0" />
        </g>
      </g>
    </g>
  </g>
</svg>
