<svg width="150" height="150" viewBox="0 0 150 150" fill="none" xmlns="http://www.w3.org/2000/svg">
<path d="M75 150C116.421 150 150 116.421 150 75C150 33.5786 116.421 0 75 0C33.5786 0 0 33.5786 0 75C0 116.421 33.5786 150 75 150Z" fill="#E6E6E6"/>
<g filter="url(#filter0_d_1155_23697)">
<path d="M95.833 35.3333H54.1663C42.6663 35.3333 33.333 44.625 33.333 56.0833V81V85.1667C33.333 96.625 42.6663 105.917 54.1663 105.917H60.4163C61.5413 105.917 63.0413 106.667 63.7497 107.583L69.9997 115.875C72.7497 119.542 77.2497 119.542 79.9997 115.875L86.2497 107.583C87.0413 106.542 88.2913 105.917 89.583 105.917H95.833C107.333 105.917 116.666 96.625 116.666 85.1667V56.0833C116.666 44.625 107.333 35.3333 95.833 35.3333Z" fill="white"/>
<g filter="url(#filter1_d_1155_23697)">
<circle cx="59" cy="73" r="4" fill="#FF3B3B"/>
<circle cx="75" cy="73" r="4" fill="#FF3B3B"/>
<circle cx="91" cy="73" r="4" fill="#FF3B3B"/>
</g>
<g filter="url(#filter2_d_1155_23697)">
<path d="M109 60.8333C117.709 60.8333 124.834 53.7083 124.834 45C124.834 36.2917 117.709 29.1667 109 29.1667C100.292 29.1667 93.167 36.2917 93.167 45C93.167 53.7083 100.292 60.8333 109 60.8333Z" fill="#FF3B3B"/>
<path d="M102.667 45H115.334" stroke="white" stroke-width="4" stroke-linecap="round" stroke-linejoin="round"/>
<path d="M109 51.3333V38.6667" stroke="white" stroke-width="4" stroke-linecap="round" stroke-linejoin="round"/>
</g>
</g>
<defs>
<filter id="filter0_d_1155_23697" x="15" y="20" width="123" height="121" filterUnits="userSpaceOnUse" color-interpolation-filters="sRGB">
<feFlood flood-opacity="0" result="BackgroundImageFix"/>
<feColorMatrix in="SourceAlpha" type="matrix" values="0 0 0 0 0 0 0 0 0 0 0 0 0 0 0 0 0 0 127 0" result="hardAlpha"/>
<feOffset dy="4"/>
<feGaussianBlur stdDeviation="5"/>
<feComposite in2="hardAlpha" operator="out"/>
<feColorMatrix type="matrix" values="0 0 0 0 0 0 0 0 0 0 0 0 0 0 0 0 0 0 0.05 0"/>
<feBlend mode="normal" in2="BackgroundImageFix" result="effect1_dropShadow_1155_23697"/>
<feBlend mode="normal" in="SourceGraphic" in2="effect1_dropShadow_1155_23697" result="shape"/>
</filter>
<filter id="filter1_d_1155_23697" x="45" y="63" width="60" height="28" filterUnits="userSpaceOnUse" color-interpolation-filters="sRGB">
<feFlood flood-opacity="0" result="BackgroundImageFix"/>
<feColorMatrix in="SourceAlpha" type="matrix" values="0 0 0 0 0 0 0 0 0 0 0 0 0 0 0 0 0 0 127 0" result="hardAlpha"/>
<feOffset dy="4"/>
<feGaussianBlur stdDeviation="5"/>
<feColorMatrix type="matrix" values="0 0 0 0 1 0 0 0 0 0.231373 0 0 0 0 0.231373 0 0 0 0.32 0"/>
<feBlend mode="normal" in2="BackgroundImageFix" result="effect1_dropShadow_1155_23697"/>
<feBlend mode="normal" in="SourceGraphic" in2="effect1_dropShadow_1155_23697" result="shape"/>
</filter>
<filter id="filter2_d_1155_23697" x="66" y="18" width="86" height="86" filterUnits="userSpaceOnUse" color-interpolation-filters="sRGB">
<feFlood flood-opacity="0" result="BackgroundImageFix"/>
<feColorMatrix in="SourceAlpha" type="matrix" values="0 0 0 0 0 0 0 0 0 0 0 0 0 0 0 0 0 0 127 0" result="hardAlpha"/>
<feOffset dy="16"/>
<feGaussianBlur stdDeviation="12"/>
<feColorMatrix type="matrix" values="0 0 0 0 1 0 0 0 0 0.231373 0 0 0 0 0.231373 0 0 0 0.32 0"/>
<feBlend mode="normal" in2="BackgroundImageFix" result="effect1_dropShadow_1155_23697"/>
<feBlend mode="normal" in="SourceGraphic" in2="effect1_dropShadow_1155_23697" result="shape"/>
</filter>
</defs>
</svg>
